<svg xmlns="http://www.w3.org/2000/svg" xmlns:xlink="http://www.w3.org/1999/xlink" viewBox="0 0 35.157 40.364" height="152.557" width="132.877" xmlns:v="https://vecta.io/nano"><style><![CDATA[.P{fill:none}.Q{stroke-width:.246}.R{fill:#529423}.S{stroke:#2d5016}.T{fill:#4b8820}.U{fill:#447821}.V{fill:#2d5016}.W{stroke:#806600}.X{fill:#fee46e}.Y{fill:#e6e6e6}.Z{fill:#fff}.a{fill-rule:evenodd}.b{stroke:#999}.c{fill:#f9f9f9}.d{fill:#f2f2f2}.e{fill:#b9b9b9}.f{fill:#fff1a1}.g{stroke-width:.451}.h{fill:#e4c900}.i{stroke:#a80}.j{fill:#806600}.k{clip-path:none}.l{fill:#f3c702}.m{fill:#f5d858}.n{fill:#f8e58f}.o{fill:#ffe24b}.p{fill:#ddad00}.q{fill:#fff2ac}.r{stroke-width:.396}.s{stroke-width:.931}]]></style><g transform="translate(-342.183 -61.803)"><g transform="matrix(.264583 0 0 .264583 342.18338 61.802869)"><g stroke-width=".375" class="W"><path d="M132.063 50.969H66.437.812c6.087 65.479 55.752 96.139 65.625 101.375 9.871-5.235 59.526-35.917 65.625-101.375z" fill="#212121" class="k"/><path d="M66.437.188v50.781h65.625a143.91 143.91 0 0 0 .625-13.375V.188z" fill="#c60a18" class="k"/><path d="M.187.188v37.406c0 4.604.225 9.074.625 13.375h65.625V.188z" fill="#1353b4" class="k"/></g><use xlink:href="#B" class="R"/><use xlink:href="#B" class="P Q S"/><use xlink:href="#C" class="T"/><use xlink:href="#D" class="U"/><use xlink:href="#E" class="V"/><use xlink:href="#F" class="R"/><use xlink:href="#F" class="P Q S"/><use xlink:href="#G" class="T"/><use xlink:href="#H" class="U"/><use xlink:href="#I" class="V"/><use xlink:href="#J" class="R"/><use xlink:href="#J" class="P Q S"/><use xlink:href="#K" class="T"/><use xlink:href="#L" class="U"/><use xlink:href="#M" class="V"/><use xlink:href="#N" class="R"/><use xlink:href="#N" class="P Q S"/><use xlink:href="#O" class="T"/><use xlink:href="#P" class="U"/><use xlink:href="#Q" class="V"/><use xlink:href="#R" class="R"/><use xlink:href="#R" class="P Q S"/><use xlink:href="#S" class="T"/><use xlink:href="#T" class="U"/><use xlink:href="#U" class="V"/><use xlink:href="#V" class="Z"/><use xlink:href="#V" class="P Q b"/><use xlink:href="#W" class="c"/><g class="d"><path d="M79.3 85.717s-.082.656.082 1.189c.246.779.595 1.435 1.21 1.968.759.636 1.415.923 2.358 1.128.923.205 1.927.636 2.563 1.128.656.492 1.353 1.333 1.825 2.173.492.841.943 1.415 1.763 1.948.697.451 1.415.574 2.194.574.533 0 1.128-.287 1.128-.287-.492-.308-1.456.369-3.055-.718-.697-.472-1.312-1.046-1.804-1.886s-1.128-1.517-1.886-2.091-1.579-.984-2.501-1.21c-.923-.205-1.64-.636-2.296-1.169-1.476-1.21-1.148-2.358-1.579-2.747zm30.096-.062c-.431.39-.103 1.538-1.599 2.768-.656.533-1.374.964-2.296 1.169s-1.743.636-2.501 1.189c-.759.574-1.394 1.251-1.886 2.091s-1.107 1.415-1.804 1.886c-1.599 1.087-2.563.41-3.055.718 0 0 .574.267 1.128.267.779 0 1.517-.123 2.194-.574.82-.533 1.292-1.107 1.763-1.948.492-.841 1.189-1.681 1.825-2.153.656-.492 1.64-.923 2.563-1.128s1.599-.492 2.358-1.128c.636-.533.984-1.21 1.21-1.968.185-.533.103-1.189.103-1.189zM83.072 66.118s-.615.123-1.066.451c-.636.472-1.148 1.025-1.456 1.804-.369.943-.41 1.681-.308 2.645.082.964 0 2.071-.246 2.85s-.8 1.722-1.435 2.46-1.025 1.353-1.271 2.337c-.205.82-.103 1.558.144 2.337.164.533.615 1.005.615 1.005.123-.574-.8-1.312-.287-3.219.226-.82.554-1.599 1.189-2.337.615-.738 1.046-1.558 1.353-2.481.287-.923.431-1.845.328-2.809-.082-.964.082-1.804.369-2.624.677-1.825 1.845-1.866 2.071-2.419zm22.428-.082c.226.554 1.394.574 2.05 2.419.287.8.451 1.64.369 2.624-.082.964.041 1.907.328 2.809.287.923.718 1.763 1.353 2.481.636.738.964 1.517 1.189 2.337.513 1.886-.41 2.624-.287 3.219 0 0 .451-.492.615-1.005.246-.779.349-1.517.144-2.337-.246-.984-.636-1.599-1.271-2.337s-1.189-1.681-1.435-2.46-.349-1.886-.246-2.87c.082-.964.041-1.702-.308-2.645-.308-.779-.82-1.312-1.456-1.804-.41-.308-1.046-.431-1.046-.431zm-16.155-4.039h-.349c-.82.062-1.476.39-2.112.882-.431.328-.759.902-.759.902.574-.062.964-1.189 2.891-1.271.841-.041 1.661.062 2.542.451.861.39 1.763.554 2.706.554s1.845-.164 2.727-.554c.861-.39 1.702-.472 2.542-.451 1.907.082 2.296 1.21 2.87 1.271 0 0-.308-.574-.738-.902-.636-.472-1.292-.82-2.112-.882-.984-.062-1.681.123-2.542.513-.882.39-1.927.636-2.727.636s-1.845-.246-2.727-.636c-.8-.328-1.415-.513-2.214-.513z"/><use xlink:href="#X"/></g><use xlink:href="#Y" class="Y"/><path d="M80.94 84.631s-.349.328-.472.718c-.369 1.128.267 1.948 1.333 2.317.759.267 1.517.205 2.235.144.738-.062 1.517-.267 2.214-.123.431.082.923.39 1.251.636.308.226.759.636.964 1.025.349.636.39 1.456.554 2.194s.349 1.497.82 2.153c.677.923 1.62 1.292 2.563.595.308-.246.513-.677.513-.677l-1.107.308c-.39.103-1.128-.349-1.394-.718-.431-.574-.759-1.066-.923-1.804-.164-.718-.308-1.497-.697-2.214-.267-.492-.738-.902-1.107-1.169s-.882-.615-1.415-.718c-.779-.164-1.538-.062-2.255.021-.718.062-1.292-.123-1.948-.349-.41-.144-1.066-.738-1.087-1.148zm26.816-.062l-.062 1.189c-.021.41-.677 1.005-1.087 1.148-.656.226-1.23.41-1.948.349s-1.497-.164-2.276-.021c-.554.103-1.066.451-1.415.718-.369.267-.841.677-1.107 1.169-.39.718-.533 1.497-.677 2.214-.164.718-.513 1.23-.923 1.804-.267.369-1.005.82-1.394.718l-1.107-.308s.185.431.513.677c.943.718 1.886.328 2.563-.595.492-.656.677-1.415.82-2.153.164-.738.205-1.558.554-2.194.205-.39.656-.779.984-1.025.308-.226.82-.554 1.251-.636.697-.144 1.476.062 2.214.123s1.497.123 2.255-.144c1.066-.39 1.702-1.189 1.333-2.317-.164-.39-.492-.718-.492-.718zM83.81 67.164c-1.169 0-1.722.861-1.743 2.03-.021.82.267 1.558.554 2.235.287.697.718 1.394.82 2.112.062.451-.082 1.025-.205 1.415s-.349.943-.656 1.271c-.492.533-1.23.841-1.866 1.23s-1.271.8-1.743 1.476c-.636.964-.697 1.989.246 2.686.328.226.8.287.8.287l-.636-.984c-.226-.349-.021-1.21.226-1.579.41-.595.759-1.066 1.374-1.456.615-.369 1.292-.759 1.845-1.353.39-.41.615-1.005.738-1.435.144-.431.287-1.046.226-1.62-.103-.82-.431-1.517-.718-2.214-.287-.677-.287-1.292-.287-2.009 0-.451.349-1.271.718-1.415l1.087-.41c.021-.021-.39-.267-.779-.267zm20.973-.103c-.39 0-.8.246-.8.246l1.066.41c.369.144.718.964.718 1.415.021.718.021 1.333-.287 2.009-.287.677-.615 1.394-.718 2.214-.062.574.082 1.189.226 1.62s.349 1.025.738 1.435c.554.595 1.21.984 1.845 1.353.615.369.984.882 1.394 1.456.246.369.451 1.251.226 1.579l-.636.984s.472-.062.8-.287c.943-.697.902-1.722.246-2.686-.451-.677-1.107-1.087-1.722-1.476s-1.394-.697-1.866-1.23c-.308-.328-.513-.882-.636-1.271s-.267-.964-.205-1.415c.082-.718.513-1.415.8-2.112s.574-1.415.574-2.235c-.062-1.148-.595-2.009-1.763-2.009zm-16.298-3.465c-.738-.021-1.353.349-1.62 1.21-.123.39-.021.861-.021.861l.718-.923c.246-.328 1.107-.41 1.538-.267.677.205 1.23.41 1.784.902s1.107 1.046 1.825 1.394c.513.246 1.128.287 1.558.287.451 0 1.046-.041 1.558-.287.718-.349 1.292-.882 1.825-1.394.554-.492 1.107-.677 1.784-.902.41-.144 1.292-.062 1.538.267l.718.923s.082-.472-.021-.861c-.349-1.148-1.333-1.415-2.399-1.066-.779.246-1.353.738-1.907 1.251-.554.492-1.066 1.128-1.702 1.456-.39.185-.984.246-1.374.246s-.984-.041-1.374-.246c-.636-.308-1.148-.943-1.702-1.456-.554-.492-1.128-1.005-1.907-1.251a2.56 2.56 0 0 0-.82-.144z" class="e"/><use xlink:href="#Z" class="Z"/><use xlink:href="#Z" class="P Q b"/><use xlink:href="#a" class="c"/><path d="M86.291 74.893s-.041-.349.041-.636c.123-.41.308-.779.656-1.046.41-.349.759-.492 1.251-.595.492-.123 1.025-.349 1.374-.595.349-.267.718-.697.984-1.148s.513-.759.943-1.046c.369-.246.759-.308 1.169-.308.287 0 .595.144.595.144-.267.164-.779-.205-1.62.39-.369.246-.697.554-.964 1.005s-.595.8-1.005 1.107-.841.533-1.333.636c-.492.123-.882.349-1.23.615-.8.656-.615 1.271-.861 1.476zm16.073.021c-.226-.205-.062-.82-.861-1.476-.349-.287-.738-.513-1.23-.615-.492-.123-.923-.328-1.333-.636s-.759-.656-1.005-1.107c-.267-.451-.595-.759-.964-1.005-.841-.574-1.353-.226-1.62-.39 0 0 .308-.144.595-.144.41 0 .8.062 1.169.308.451.287.697.595.943 1.046.267.451.636.902.984 1.148.349.267.882.492 1.374.595.492.123.861.267 1.251.615.328.287.513.636.656 1.046.082.267.041.615.041.615zM88.321 85.348s-.328-.062-.574-.246c-.349-.246-.615-.533-.779-.964-.185-.492-.205-.902-.164-1.415s0-1.107-.144-1.517c-.123-.41-.431-.923-.759-1.312s-.554-.718-.677-1.251c-.103-.431-.041-.841.082-1.251.082-.287.328-.533.328-.533.062.308-.431.697-.144 1.702.123.431.308.861.636 1.251s.554.841.718 1.333a3.72 3.72 0 0 1 .185 1.497 3.12 3.12 0 0 0 .205 1.394c.349.984.964 1.005 1.087 1.312zm11.952.041c.123-.287.738-.308 1.107-1.292a3.12 3.12 0 0 0 .205-1.394 3.72 3.72 0 0 1 .185-1.497c.164-.492.39-.943.718-1.333s.513-.8.636-1.251c.267-1.005-.226-1.394-.144-1.702a1.82 1.82 0 0 0 .328.533c.123.41.185.82.082 1.251-.123.513-.349.861-.677 1.251s-.636.902-.759 1.312-.185 1.005-.144 1.517.021.902-.164 1.415c-.164.41-.431.697-.779.964-.246.164-.595.226-.595.226zm-8.611 2.153h-.185c-.431-.021-.779-.205-1.128-.472-.226-.164-.41-.472-.41-.472.308.021.513.636 1.538.677.451.021.882-.021 1.353-.246.472-.205.943-.287 1.456-.287.492 0 .984.082 1.456.287s.902.246 1.353.246c1.025-.041 1.23-.656 1.538-.677 0 0-.164.308-.39.472-.349.246-.697.431-1.128.472-.513.041-.902-.062-1.353-.267-.472-.205-1.025-.349-1.456-.349s-.984.144-1.456.349c-.431.164-.759.267-1.189.267z" class="Y"/><use xlink:href="#b" class="d"/><use xlink:href="#c" class="Y"/><path d="M87.173 75.467s-.185-.164-.246-.369c-.205-.615.144-1.046.718-1.251.41-.144.8-.103 1.189-.082.39.041.82.144 1.189.062.226-.041.492-.205.656-.328s.41-.328.513-.554c.185-.349.205-.779.287-1.169s.185-.8.451-1.148c.369-.492.861-.697 1.374-.308.164.123.287.369.287.369l-.595-.164c-.205-.062-.615.185-.738.369-.226.308-.41.574-.492.964s-.164.8-.369 1.189c-.144.267-.39.472-.595.615-.185.144-.472.328-.759.39-.41.082-.82.021-1.21 0-.39-.041-.697.062-1.046.185-.226.082-.574.39-.574.615zm14.31.041l-.021-.636c0-.226-.369-.533-.574-.615-.349-.123-.656-.226-1.046-.185s-.8.082-1.21 0c-.287-.062-.574-.246-.759-.39s-.451-.349-.595-.615c-.205-.39-.287-.8-.369-1.189s-.267-.656-.492-.964c-.144-.185-.533-.431-.738-.39l-.595.164s.103-.226.267-.369c.492-.369 1.005-.185 1.374.308.267.349.349.759.451 1.148.082.39.123.841.287 1.169.123.205.349.41.513.554.164.123.431.287.656.328.369.082.779-.041 1.189-.062.39-.041.8-.062 1.21.082.574.205.902.636.718 1.251-.082.226-.267.41-.267.41zM88.71 84.774c-.615 0-.923-.451-.923-1.087 0-.431.144-.82.287-1.189.164-.369.39-.738.431-1.128.021-.246-.041-.554-.103-.759s-.185-.492-.349-.677c-.267-.287-.656-.451-1.005-.656-.328-.205-.677-.431-.923-.779-.349-.513-.369-1.066.123-1.435.164-.123.431-.164.431-.164l-.328.533c-.123.185-.021.656.123.841.205.308.41.574.738.779s.697.41.984.718c.205.226.328.533.39.759.082.226.164.554.123.861-.062.431-.226.82-.39 1.189s-.164.697-.144 1.066c0 .246.185.677.39.759l.574.226c0 .021-.226.144-.431.144zm11.173.062c-.205 0-.431-.123-.431-.123l.574-.226c.205-.082.39-.513.39-.759 0-.39 0-.718-.144-1.066-.164-.369-.328-.738-.39-1.189-.041-.308.041-.636.123-.861s.185-.554.39-.759c.287-.328.656-.533.984-.718.328-.205.533-.472.738-.779.144-.205.246-.656.123-.841l-.349-.533a1.27 1.27 0 0 0 .431.164c.513.369.472.923.123 1.435-.246.369-.595.574-.923.779s-.738.369-1.005.656c-.164.185-.287.472-.349.677s-.144.513-.103.759c.041.39.267.759.431 1.128s.308.759.308 1.189c0 .615-.287 1.066-.923 1.066zm-8.672 1.845a.84.84 0 0 1-.861-.636c-.062-.205-.021-.451-.021-.451l.39.492c.123.164.595.226.82.144.349-.123.656-.205.943-.472s.595-.554.984-.738c.267-.123.595-.144.841-.144s.554.021.841.144c.39.185.677.472.984.738.287.267.595.369.943.472.226.062.697.021.82-.144l.39-.492s.041.246-.021.451c-.185.615-.697.759-1.292.574-.41-.123-.718-.39-1.005-.656s-.574-.615-.902-.779c-.205-.103-.513-.123-.738-.123-.205 0-.513.021-.738.123-.349.164-.615.513-.902.779s-.595.533-1.005.656c-.205.041-.349.062-.472.062z" class="e"/><use xlink:href="#d" class="l"/><use xlink:href="#d" class="P Q i"/><use xlink:href="#e" class="m"/><use xlink:href="#f" class="n"/><use xlink:href="#B" x="-56.429" class="R"/><use xlink:href="#B" x="-56.429" class="P Q S"/><use xlink:href="#C" x="-56.429" class="T"/><use xlink:href="#D" x="-56.429" class="U"/><use xlink:href="#E" x="-56.429" class="V"/><use xlink:href="#F" x="-56.429" class="R"/><use xlink:href="#F" x="-56.429" class="P Q S"/><use xlink:href="#G" x="-56.428" class="T"/><use xlink:href="#H" x="-56.429" class="U"/><use xlink:href="#I" x="-56.428" class="V"/><use xlink:href="#J" x="-56.428" class="R"/><use xlink:href="#J" x="-56.428" class="P Q S"/><use xlink:href="#K" x="-56.429" class="T"/><use xlink:href="#L" x="-56.428" class="U"/><use xlink:href="#M" x="-56.429" class="V"/><use xlink:href="#N" x="-56.428" class="R"/><use xlink:href="#N" x="-56.428" class="P Q S"/><use xlink:href="#O" x="-56.429" class="T"/><use xlink:href="#P" x="-56.429" class="U"/><use xlink:href="#Q" x="-56.429" class="V"/><use xlink:href="#R" x="-56.429" class="R"/><use xlink:href="#R" x="-56.429" class="P Q S"/><use xlink:href="#S" x="-56.429" class="T"/><use xlink:href="#T" x="-56.429" class="U"/><use xlink:href="#U" x="-56.428" class="V"/><use xlink:href="#V" x="-56.428" class="Z"/><use xlink:href="#V" x="-56.428" class="P Q b"/><use xlink:href="#W" x="-56.429" class="c"/><g class="d"><path d="M22.872 85.717s-.082.656.082 1.189c.246.779.595 1.435 1.21 1.968.759.636 1.415.923 2.358 1.128.923.205 1.927.636 2.563 1.128.656.492 1.353 1.333 1.825 2.173.492.841.943 1.415 1.763 1.948.697.451 1.415.574 2.194.574.533 0 1.128-.287 1.128-.287-.492-.308-1.456.369-3.055-.718-.697-.472-1.312-1.046-1.804-1.886s-1.128-1.517-1.886-2.091-1.579-.984-2.501-1.21c-.923-.205-1.64-.636-2.296-1.169-1.476-1.21-1.148-2.358-1.579-2.747zm30.096-.062c-.431.39-.103 1.538-1.599 2.768-.656.533-1.374.964-2.296 1.169s-1.743.636-2.501 1.189c-.759.574-1.394 1.251-1.886 2.091s-1.107 1.415-1.804 1.886c-1.599 1.087-2.563.41-3.055.718 0 0 .574.267 1.128.267.779 0 1.517-.123 2.194-.574.82-.533 1.292-1.107 1.763-1.948.492-.841 1.189-1.681 1.825-2.153.656-.492 1.64-.923 2.563-1.128s1.599-.492 2.358-1.128c.636-.533.984-1.21 1.21-1.968.185-.533.103-1.189.103-1.189zM26.644 66.118s-.615.123-1.066.451c-.636.472-1.148 1.025-1.456 1.804-.369.943-.41 1.681-.308 2.645.082.964 0 2.071-.246 2.85s-.8 1.722-1.435 2.46-1.025 1.353-1.271 2.337c-.205.82-.103 1.558.144 2.337.164.533.615 1.005.615 1.005.123-.574-.8-1.312-.287-3.219.226-.82.554-1.599 1.189-2.337.615-.738 1.046-1.558 1.353-2.481.287-.923.431-1.845.328-2.809-.082-.964.082-1.804.369-2.624.677-1.825 1.845-1.866 2.071-2.419zm22.428-.082c.226.554 1.394.574 2.05 2.419.287.8.451 1.64.369 2.624-.082.964.041 1.907.328 2.809.287.923.718 1.763 1.353 2.481.636.738.964 1.517 1.189 2.337.513 1.886-.41 2.624-.287 3.219 0 0 .451-.492.615-1.005.246-.779.349-1.517.144-2.337-.246-.984-.636-1.599-1.271-2.337s-1.189-1.681-1.435-2.46-.349-1.886-.246-2.87c.082-.964.041-1.702-.308-2.645-.308-.779-.82-1.312-1.456-1.804-.41-.308-1.046-.431-1.046-.431zm-16.155-4.039h-.349c-.82.062-1.476.39-2.112.882-.431.328-.759.902-.759.902.574-.062.964-1.189 2.891-1.271.841-.041 1.661.062 2.542.451.861.39 1.763.554 2.706.554s1.845-.164 2.727-.554c.861-.39 1.702-.472 2.542-.451 1.907.082 2.296 1.21 2.87 1.271 0 0-.308-.574-.738-.902-.636-.472-1.292-.82-2.112-.882-.984-.062-1.681.123-2.542.513-.882.39-1.927.636-2.727.636s-1.845-.246-2.727-.636c-.8-.328-1.415-.513-2.214-.513z"/><use xlink:href="#X" x="-56.428"/></g><use xlink:href="#Y" x="-56.428" class="Y"/><path d="M24.512 84.631s-.349.328-.472.718c-.369 1.128.267 1.948 1.333 2.317.759.267 1.517.205 2.235.144.738-.062 1.517-.267 2.214-.123.431.082.923.39 1.251.636.308.226.759.636.964 1.025.349.636.39 1.456.554 2.194s.349 1.497.82 2.153c.677.923 1.62 1.292 2.563.595.308-.246.513-.677.513-.677l-1.107.308c-.39.103-1.128-.349-1.394-.718-.431-.574-.759-1.066-.923-1.804-.164-.718-.308-1.497-.697-2.214-.267-.492-.738-.902-1.107-1.169s-.882-.615-1.415-.718c-.779-.164-1.538-.062-2.255.021-.718.062-1.292-.123-1.948-.349-.41-.144-1.066-.738-1.087-1.148zm26.816-.062l-.062 1.189c-.021.41-.677 1.005-1.087 1.148-.656.226-1.23.41-1.948.349s-1.497-.164-2.276-.021c-.554.103-1.066.451-1.415.718-.369.267-.841.677-1.107 1.169-.39.718-.533 1.497-.677 2.214-.164.718-.513 1.23-.923 1.804-.267.369-1.005.82-1.394.718l-1.107-.308s.185.431.513.677c.943.718 1.886.328 2.563-.595.492-.656.677-1.415.82-2.153.164-.738.205-1.558.554-2.194.205-.39.656-.779.984-1.025.308-.226.82-.554 1.251-.636.697-.144 1.476.062 2.214.123s1.497.123 2.255-.144c1.066-.39 1.702-1.189 1.333-2.317-.164-.39-.492-.718-.492-.718zM27.382 67.164c-1.169 0-1.722.861-1.743 2.03-.021.82.267 1.558.554 2.235.287.697.718 1.394.82 2.112.062.451-.082 1.025-.205 1.415s-.349.943-.656 1.271c-.492.533-1.23.841-1.866 1.23s-1.271.8-1.743 1.476c-.636.964-.697 1.989.246 2.686.328.226.8.287.8.287l-.636-.984c-.226-.349-.021-1.21.226-1.579.41-.595.759-1.066 1.374-1.456.615-.369 1.292-.759 1.845-1.353.39-.41.615-1.005.738-1.435.144-.431.287-1.046.226-1.62-.103-.82-.431-1.517-.718-2.214-.287-.677-.287-1.292-.287-2.009 0-.451.349-1.271.718-1.415l1.087-.41c.021-.021-.39-.267-.779-.267zm20.973-.103c-.39 0-.8.246-.8.246l1.066.41c.369.144.718.964.718 1.415.021.718.021 1.333-.287 2.009-.287.677-.615 1.394-.718 2.214-.062.574.082 1.189.226 1.62s.349 1.025.738 1.435c.554.595 1.21.984 1.845 1.353.615.369.984.882 1.394 1.456.246.369.451 1.251.226 1.579l-.636.984s.472-.062.8-.287c.943-.697.902-1.722.246-2.686-.451-.677-1.107-1.087-1.722-1.476s-1.394-.697-1.866-1.23c-.308-.328-.513-.882-.636-1.271s-.267-.964-.205-1.415c.082-.718.513-1.415.8-2.112s.574-1.415.574-2.235c-.062-1.148-.595-2.009-1.763-2.009zm-16.298-3.465c-.738-.021-1.353.349-1.62 1.21-.123.39-.021.861-.021.861l.718-.923c.246-.328 1.107-.41 1.538-.267.677.205 1.23.41 1.784.902s1.107 1.046 1.825 1.394c.513.246 1.128.287 1.558.287.451 0 1.046-.041 1.558-.287.718-.349 1.292-.882 1.825-1.394.554-.492 1.107-.677 1.784-.902.41-.144 1.292-.062 1.538.267l.718.923s.082-.472-.021-.861c-.349-1.148-1.333-1.415-2.399-1.066-.779.246-1.353.738-1.907 1.251-.554.492-1.066 1.128-1.702 1.456-.39.185-.984.246-1.374.246s-.984-.041-1.374-.246c-.636-.308-1.148-.943-1.702-1.456-.554-.492-1.128-1.005-1.907-1.251a2.56 2.56 0 0 0-.82-.144z" class="e"/><use xlink:href="#Z" x="-56.428" class="Z"/><use xlink:href="#Z" x="-56.428" class="P Q b"/><use xlink:href="#a" x="-56.429" class="c"/><path d="M29.862 74.893s-.041-.349.041-.636c.123-.41.308-.779.656-1.046.41-.349.759-.492 1.251-.595.492-.123 1.025-.349 1.374-.595.349-.267.718-.697.984-1.148s.513-.759.943-1.046c.369-.246.759-.308 1.169-.308.287 0 .595.144.595.144-.267.164-.779-.205-1.62.39-.369.246-.697.554-.964 1.005s-.595.8-1.005 1.107-.841.533-1.333.636c-.492.123-.882.349-1.23.615-.8.656-.615 1.271-.861 1.476zm16.073.021c-.226-.205-.062-.82-.861-1.476-.349-.287-.738-.513-1.23-.615-.492-.123-.923-.328-1.333-.636s-.759-.656-1.005-1.107c-.267-.451-.595-.759-.964-1.005-.841-.574-1.353-.226-1.62-.39 0 0 .308-.144.595-.144.41 0 .8.062 1.169.308.451.287.697.595.943 1.046.267.451.636.902.984 1.148.349.267.882.492 1.374.595.492.123.861.267 1.251.615.328.287.513.636.656 1.046.082.267.041.615.041.615zM31.892 85.348s-.328-.062-.574-.246c-.349-.246-.615-.533-.779-.964-.185-.492-.205-.902-.164-1.415s0-1.107-.144-1.517c-.123-.41-.431-.923-.759-1.312s-.554-.718-.677-1.251c-.103-.431-.041-.841.082-1.251.082-.287.328-.533.328-.533.062.308-.431.697-.144 1.702.123.431.308.861.636 1.251s.554.841.718 1.333a3.72 3.72 0 0 1 .185 1.497 3.12 3.12 0 0 0 .205 1.394c.349.984.964 1.005 1.087 1.312zm11.952.041c.123-.287.738-.308 1.107-1.292a3.12 3.12 0 0 0 .205-1.394 3.72 3.72 0 0 1 .185-1.497c.164-.492.39-.943.718-1.333s.513-.8.636-1.251c.267-1.005-.226-1.394-.144-1.702a1.82 1.82 0 0 0 .328.533c.123.41.185.82.082 1.251-.123.513-.349.861-.677 1.251s-.636.902-.759 1.312-.185 1.005-.144 1.517.021.902-.164 1.415c-.164.41-.431.697-.779.964-.246.164-.595.226-.595.226zm-8.611 2.153h-.185c-.431-.021-.779-.205-1.128-.472-.226-.164-.41-.472-.41-.472.308.021.513.636 1.538.677.451.021.882-.021 1.353-.246.472-.205.943-.287 1.456-.287.492 0 .984.082 1.456.287s.902.246 1.353.246c1.025-.041 1.23-.656 1.538-.677 0 0-.164.308-.39.472-.349.246-.697.431-1.128.472-.513.041-.902-.062-1.353-.267-.472-.205-1.025-.349-1.456-.349s-.984.144-1.456.349c-.431.164-.759.267-1.189.267z" class="Y"/><use xlink:href="#b" x="-56.429" class="d"/><use xlink:href="#c" x="-56.429" class="Y"/><path d="M30.744 75.467s-.185-.164-.246-.369c-.205-.615.144-1.046.718-1.251.41-.144.8-.103 1.189-.082.39.041.82.144 1.189.062.226-.041.492-.205.656-.328s.41-.328.513-.554c.185-.349.205-.779.287-1.169s.185-.8.451-1.148c.369-.492.861-.697 1.374-.308.164.123.287.369.287.369l-.595-.164c-.205-.062-.615.185-.738.369-.226.308-.41.574-.492.964s-.164.8-.369 1.189c-.144.267-.39.472-.595.615-.185.144-.472.328-.759.39-.41.082-.82.021-1.21 0-.39-.041-.697.062-1.046.185-.226.082-.574.39-.574.615zm14.31.041l-.021-.636c0-.226-.369-.533-.574-.615-.349-.123-.656-.226-1.046-.185s-.8.082-1.21 0c-.287-.062-.574-.246-.759-.39s-.451-.349-.595-.615c-.205-.39-.287-.8-.369-1.189s-.267-.656-.492-.964c-.144-.185-.533-.431-.738-.39l-.595.164s.103-.226.267-.369c.492-.369 1.005-.185 1.374.308.267.349.349.759.451 1.148.082.39.123.841.287 1.169.123.205.349.41.513.554.164.123.431.287.656.328.369.082.779-.041 1.189-.062.39-.041.8-.062 1.21.082.574.205.902.636.718 1.251-.082.226-.267.41-.267.41zm-12.772 9.267c-.615 0-.923-.451-.923-1.087 0-.431.144-.82.287-1.189.164-.369.39-.738.431-1.128.021-.246-.041-.554-.103-.759s-.185-.492-.349-.677c-.267-.287-.656-.451-1.005-.656-.328-.205-.677-.431-.923-.779-.349-.513-.369-1.066.123-1.435.164-.123.431-.164.431-.164l-.328.533c-.123.185-.021.656.123.841.205.308.41.574.738.779s.697.41.984.718c.205.226.328.533.39.759.082.226.164.554.123.861-.062.431-.226.82-.39 1.189s-.164.697-.144 1.066c0 .246.185.677.39.759l.574.226c0 .021-.226.144-.431.144zm11.173.062c-.205 0-.431-.123-.431-.123l.574-.226c.205-.082.39-.513.39-.759 0-.39 0-.718-.144-1.066-.164-.369-.328-.738-.39-1.189-.041-.308.041-.636.123-.861s.185-.554.39-.759c.287-.328.656-.533.984-.718.328-.205.533-.472.738-.779.144-.205.246-.656.123-.841l-.349-.533a1.27 1.27 0 0 0 .431.164c.513.369.472.923.123 1.435-.246.369-.595.574-.923.779s-.738.369-1.005.656c-.164.185-.287.472-.349.677s-.144.513-.103.759c.041.39.267.759.431 1.128s.308.759.308 1.189c0 .615-.287 1.066-.923 1.066zm-8.672 1.845a.84.84 0 0 1-.861-.636c-.062-.205-.021-.451-.021-.451l.39.492c.123.164.595.226.82.144.349-.123.656-.205.943-.472s.595-.554.984-.738c.267-.123.595-.144.841-.144s.554.021.841.144c.39.185.677.472.984.738.287.267.595.369.943.472.226.062.697.021.82-.144l.39-.492s.041.246-.021.451c-.185.615-.697.759-1.292.574-.41-.123-.718-.39-1.005-.656s-.574-.615-.902-.779c-.205-.103-.513-.123-.738-.123-.205 0-.513.021-.738.123-.349.164-.615.513-.902.779s-.595.533-1.005.656c-.205.041-.349.062-.472.062z" class="e"/><use xlink:href="#d" x="-56.429" class="l"/><use xlink:href="#d" x="-56.429" class="P Q i"/><use xlink:href="#e" x="-56.429" class="m"/><use xlink:href="#f" x="-56.428" class="n"/><use xlink:href="#B" x="-27.81" y="37.954" class="R"/><use xlink:href="#B" x="-27.81" y="37.954" class="P Q S"/><use xlink:href="#C" x="-27.81" y="37.953" class="T"/><use xlink:href="#D" x="-27.81" y="37.953" class="U"/><path d="M66.497 124.43s.164.902.164 1.374v9.369l-.164 2.296s-.185-1.517-.164-2.296v-9.369c.021-.472.164-1.374.164-1.374z" class="V"/><use xlink:href="#F" x="-27.81" y="37.954" class="R"/><use xlink:href="#F" x="-27.81" y="37.954" class="P Q S"/><use xlink:href="#G" x="-27.81" y="37.954" class="T"/><use xlink:href="#H" x="-27.811" y="37.953" class="U"/><use xlink:href="#I" x="-27.81" y="37.954" class="V"/><use xlink:href="#J" x="-27.81" y="37.954" class="R"/><use xlink:href="#J" x="-27.81" y="37.954" class="P Q S"/><use xlink:href="#K" x="-27.81" y="37.954" class="T"/><use xlink:href="#L" x="-27.81" y="37.953" class="U"/><use xlink:href="#M" x="-27.81" y="37.953" class="V"/><use xlink:href="#N" x="-27.81" y="37.954" class="R"/><use xlink:href="#N" x="-27.81" y="37.954" class="P Q S"/><use xlink:href="#O" x="-27.81" y="37.954" class="T"/><use xlink:href="#P" x="-27.81" y="37.954" class="U"/><use xlink:href="#Q" x="-27.811" y="37.953" class="V"/><use xlink:href="#R" x="-27.81" y="37.954" class="R"/><use xlink:href="#R" x="-27.81" y="37.954" class="P Q S"/><use xlink:href="#S" x="-27.81" y="37.954" class="T"/><use xlink:href="#T" x="-27.81" y="37.954" class="U"/><use xlink:href="#U" x="-27.81" y="37.953" class="V"/><use xlink:href="#V" x="-27.81" y="37.954" class="Z"/><use xlink:href="#V" x="-27.81" y="37.954" class="P Q b"/><use xlink:href="#W" x="-27.81" y="37.953" class="c"/><g class="d"><path d="M51.49 123.671s-.082.656.082 1.189c.246.779.595 1.435 1.21 1.968.759.636 1.415.923 2.358 1.128.923.205 1.927.636 2.563 1.128.656.492 1.353 1.333 1.825 2.173.492.841.943 1.415 1.763 1.948.697.451 1.415.574 2.194.574.533 0 1.128-.287 1.128-.287-.492-.308-1.456.369-3.055-.718-.697-.472-1.312-1.046-1.804-1.886s-1.128-1.517-1.886-2.091-1.579-.984-2.501-1.21c-.923-.205-1.64-.636-2.296-1.169-1.476-1.21-1.148-2.358-1.579-2.747zm30.096-.062c-.431.39-.103 1.538-1.599 2.768-.656.533-1.374.964-2.296 1.169s-1.743.636-2.501 1.189c-.759.574-1.394 1.251-1.886 2.091s-1.107 1.415-1.804 1.886c-1.599 1.087-2.563.41-3.055.718 0 0 .574.267 1.128.267.779 0 1.517-.123 2.194-.574.82-.533 1.292-1.107 1.763-1.948.492-.841 1.189-1.681 1.825-2.153.656-.492 1.64-.923 2.563-1.128s1.599-.492 2.358-1.128c.636-.533.984-1.21 1.21-1.968.185-.533.103-1.189.103-1.189zm-26.324-19.538s-.615.123-1.066.451c-.636.472-1.148 1.025-1.456 1.804-.369.943-.41 1.681-.308 2.645.082.964 0 2.071-.246 2.85s-.8 1.722-1.435 2.46-1.025 1.353-1.271 2.337c-.205.82-.103 1.558.144 2.337.164.533.615 1.005.615 1.005.123-.574-.8-1.312-.287-3.219.226-.82.554-1.599 1.189-2.337.615-.738 1.046-1.558 1.353-2.481.287-.923.431-1.845.328-2.809-.082-.964.082-1.804.369-2.624.677-1.825 1.845-1.866 2.071-2.419zm22.428-.082c.226.554 1.394.574 2.05 2.419.287.8.451 1.64.369 2.624-.082.964.041 1.907.328 2.809.287.923.718 1.763 1.353 2.481.636.738.964 1.517 1.189 2.337.513 1.886-.41 2.624-.287 3.219 0 0 .451-.492.615-1.005.246-.779.349-1.517.144-2.337-.246-.984-.636-1.599-1.271-2.337s-1.189-1.681-1.435-2.46-.349-1.886-.246-2.87c.082-.964.041-1.702-.308-2.645-.308-.779-.82-1.312-1.456-1.804-.41-.308-1.046-.431-1.046-.431zm-16.155-4.039h-.349c-.82.062-1.476.39-2.112.882-.431.328-.759.902-.759.902.574-.062.964-1.189 2.891-1.271.841-.041 1.661.062 2.542.451.861.39 1.763.554 2.706.554s1.845-.164 2.727-.554c.861-.39 1.702-.472 2.542-.451 1.907.082 2.296 1.21 2.87 1.271 0 0-.308-.574-.738-.902-.636-.472-1.292-.82-2.112-.882-.984-.062-1.681.123-2.542.513-.882.39-1.927.636-2.727.636s-1.845-.246-2.727-.636c-.8-.328-1.415-.513-2.214-.513z"/><use xlink:href="#X" x="-27.81" y="37.953"/></g><use xlink:href="#Y" x="-27.81" y="37.954" class="Y"/><path d="M53.13 122.585s-.349.328-.472.718c-.369 1.128.267 1.948 1.333 2.317.759.267 1.517.205 2.235.144.738-.062 1.517-.267 2.214-.123.431.082.923.39 1.251.636.308.226.759.636.964 1.025.349.636.39 1.456.554 2.194s.349 1.497.82 2.153c.677.923 1.62 1.292 2.563.595.308-.246.513-.677.513-.677l-1.107.308c-.39.103-1.128-.349-1.394-.718-.431-.574-.759-1.066-.923-1.804-.164-.718-.308-1.497-.697-2.214-.267-.492-.738-.902-1.107-1.169s-.882-.615-1.415-.718c-.779-.164-1.538-.062-2.255.021-.718.062-1.292-.123-1.948-.349-.41-.144-1.066-.738-1.087-1.148zm26.816-.062l-.062 1.189c-.021.41-.677 1.005-1.087 1.148-.656.226-1.23.41-1.948.349s-1.497-.164-2.276-.021c-.554.103-1.066.451-1.415.718-.369.267-.841.677-1.107 1.169-.39.718-.533 1.497-.677 2.214-.164.718-.513 1.23-.923 1.804-.267.369-1.005.82-1.394.718l-1.107-.308s.185.431.513.677c.943.718 1.886.328 2.563-.595.492-.656.677-1.415.82-2.153.164-.738.205-1.558.554-2.194.205-.39.656-.779.984-1.025.308-.226.82-.554 1.251-.636.697-.144 1.476.062 2.214.123s1.497.123 2.255-.144c1.066-.39 1.702-1.189 1.333-2.317-.164-.39-.492-.718-.492-.718zM56 105.118c-1.169 0-1.722.861-1.743 2.03-.021.82.267 1.558.554 2.235.287.697.718 1.394.82 2.112.062.451-.082 1.025-.205 1.415s-.349.943-.656 1.271c-.492.533-1.23.841-1.866 1.23s-1.271.8-1.743 1.476c-.636.964-.697 1.989.246 2.686.328.226.8.287.8.287l-.636-.984c-.226-.349-.021-1.21.226-1.579.41-.595.759-1.066 1.374-1.456.615-.369 1.292-.759 1.845-1.353.39-.41.615-1.005.738-1.435.144-.431.287-1.046.226-1.62-.103-.82-.431-1.517-.718-2.214-.287-.677-.287-1.292-.287-2.009 0-.451.349-1.271.718-1.415l1.087-.41c.021-.021-.39-.267-.779-.267zm20.973-.103c-.39 0-.8.246-.8.246l1.066.41c.369.144.718.964.718 1.415.021.718.021 1.333-.287 2.009-.287.677-.615 1.394-.718 2.214-.062.574.082 1.189.226 1.62s.349 1.025.738 1.435c.554.595 1.21.984 1.845 1.353.615.369.984.882 1.394 1.456.246.369.451 1.251.226 1.579l-.636.984s.472-.062.8-.287c.943-.697.902-1.722.246-2.686-.451-.677-1.107-1.087-1.722-1.476s-1.394-.697-1.866-1.23c-.308-.328-.513-.882-.636-1.271s-.267-.964-.205-1.415c.082-.718.513-1.415.8-2.112s.574-1.415.574-2.235c-.062-1.148-.595-2.009-1.763-2.009zm-16.298-3.465c-.738-.021-1.353.349-1.62 1.21-.123.39-.021.861-.021.861l.718-.923c.246-.328 1.107-.41 1.538-.267.677.205 1.23.41 1.784.902s1.107 1.046 1.825 1.394c.513.246 1.128.287 1.558.287.451 0 1.046-.041 1.558-.287.718-.349 1.292-.882 1.825-1.394.554-.492 1.107-.677 1.784-.902.41-.144 1.292-.062 1.538.267l.718.923s.082-.472-.021-.861c-.349-1.148-1.333-1.415-2.399-1.066-.779.246-1.353.738-1.907 1.251-.554.492-1.066 1.128-1.702 1.456-.39.185-.984.246-1.374.246s-.984-.041-1.374-.246c-.636-.308-1.148-.943-1.702-1.456-.554-.492-1.128-1.005-1.907-1.251a2.56 2.56 0 0 0-.82-.144z" class="e"/><use xlink:href="#Z" x="-27.81" y="37.954" class="Z"/><use xlink:href="#Z" x="-27.81" y="37.954" class="P Q b"/><use xlink:href="#a" x="-27.81" y="37.953" class="c"/><path d="M58.481 112.847s-.041-.349.041-.636c.123-.41.308-.779.656-1.046.41-.349.759-.492 1.251-.595.492-.123 1.025-.349 1.374-.595.349-.267.718-.697.984-1.148s.513-.759.943-1.046c.369-.246.759-.308 1.169-.308.287 0 .595.144.595.144-.267.164-.779-.205-1.62.39-.369.246-.697.554-.964 1.005s-.595.8-1.005 1.107-.841.533-1.333.636c-.492.123-.882.349-1.23.615-.8.656-.615 1.271-.861 1.476zm16.073.021c-.226-.205-.062-.82-.861-1.476-.349-.287-.738-.513-1.23-.615-.492-.123-.923-.328-1.333-.636s-.759-.656-1.005-1.107c-.267-.451-.595-.759-.964-1.005-.841-.574-1.353-.226-1.62-.39 0 0 .308-.144.595-.144.41 0 .8.062 1.169.308.451.287.697.595.943 1.046.267.451.636.902.984 1.148.349.267.882.492 1.374.595.492.123.861.267 1.251.615.328.287.513.636.656 1.046.082.267.041.615.041.615zM60.51 123.302s-.328-.062-.574-.246c-.349-.246-.615-.533-.779-.964-.185-.492-.205-.902-.164-1.415s0-1.107-.144-1.517c-.123-.41-.431-.923-.759-1.312s-.554-.718-.677-1.251c-.103-.431-.041-.841.082-1.251.082-.287.328-.533.328-.533.062.308-.431.697-.144 1.702.123.431.308.861.636 1.251s.554.841.718 1.333a3.72 3.72 0 0 1 .185 1.497 3.12 3.12 0 0 0 .205 1.394c.349.984.964 1.005 1.087 1.312zm11.952.041c.123-.287.738-.308 1.107-1.292a3.12 3.12 0 0 0 .205-1.394 3.72 3.72 0 0 1 .185-1.497c.164-.492.39-.943.718-1.333s.513-.8.636-1.251c.267-1.005-.226-1.394-.144-1.702a1.82 1.82 0 0 0 .328.533c.123.41.185.82.082 1.251-.123.513-.349.861-.677 1.251s-.636.902-.759 1.312-.185 1.005-.144 1.517.021.902-.164 1.415c-.164.41-.431.697-.779.964-.246.164-.595.226-.595.226zm-8.611 2.153h-.185c-.431-.021-.779-.205-1.128-.472-.226-.164-.41-.472-.41-.472.308.021.513.636 1.538.677.451.021.882-.021 1.353-.246.472-.205.943-.287 1.456-.287.492 0 .984.082 1.456.287s.902.246 1.353.246c1.025-.041 1.23-.656 1.538-.677 0 0-.164.308-.39.472-.349.246-.697.431-1.128.472-.513.041-.902-.062-1.353-.267-.472-.205-1.025-.349-1.456-.349s-.984.144-1.456.349c-.431.164-.759.267-1.189.267z" class="Y"/><use xlink:href="#b" x="-27.81" y="37.953" class="d"/><use xlink:href="#c" x="-27.81" y="37.954" class="Y"/><path d="M59.362 113.421s-.185-.164-.246-.369c-.205-.615.144-1.046.718-1.251.41-.144.8-.103 1.189-.082.39.041.82.144 1.189.062.226-.041.492-.205.656-.328s.41-.328.513-.554c.185-.349.205-.779.287-1.169s.185-.8.451-1.148c.369-.492.861-.697 1.374-.308.164.123.287.369.287.369l-.595-.164c-.205-.062-.615.185-.738.369-.226.308-.41.574-.492.964s-.164.8-.369 1.189c-.144.267-.39.472-.595.615-.185.144-.472.328-.759.39-.41.082-.82.021-1.21 0-.39-.041-.697.062-1.046.185-.226.082-.574.39-.574.615zm14.31.041l-.021-.636c0-.226-.369-.533-.574-.615-.349-.123-.656-.226-1.046-.185s-.8.082-1.21 0c-.287-.062-.574-.246-.759-.39s-.451-.349-.595-.615c-.205-.39-.287-.8-.369-1.189s-.267-.656-.492-.964c-.144-.185-.533-.431-.738-.39l-.595.164s.103-.226.267-.369c.492-.369 1.005-.185 1.374.308.267.349.349.759.451 1.148.082.39.123.841.287 1.169.123.205.349.41.513.554.164.123.431.287.656.328.369.082.779-.041 1.189-.062.39-.041.8-.062 1.21.082.574.205.902.636.718 1.251-.082.226-.267.41-.267.41zM60.9 122.728c-.615 0-.923-.451-.923-1.087 0-.431.144-.82.287-1.189.164-.369.39-.738.431-1.128.021-.246-.041-.554-.103-.759s-.185-.492-.349-.677c-.267-.287-.656-.451-1.005-.656-.328-.205-.677-.431-.923-.779-.349-.513-.369-1.066.123-1.435.164-.123.431-.164.431-.164l-.328.533c-.123.185-.021.656.123.841.205.308.41.574.738.779s.697.41.984.718c.205.226.328.533.39.759.082.226.164.554.123.861-.062.431-.226.82-.39 1.189s-.164.697-.144 1.066c0 .246.185.677.39.759l.574.226c0 .021-.226.144-.431.144zm11.173.062c-.205 0-.431-.123-.431-.123l.574-.226c.205-.082.39-.513.39-.759 0-.39 0-.718-.144-1.066-.164-.369-.328-.738-.39-1.189-.041-.308.041-.636.123-.861s.185-.554.39-.759c.287-.328.656-.533.984-.718.328-.205.533-.472.738-.779.144-.205.246-.656.123-.841l-.349-.533a1.27 1.27 0 0 0 .431.164c.513.369.472.923.123 1.435-.246.369-.595.574-.923.779s-.738.369-1.005.656c-.164.185-.287.472-.349.677s-.144.513-.103.759c.041.39.267.759.431 1.128s.308.759.308 1.189c0 .615-.287 1.066-.923 1.066zm-8.672 1.845a.84.84 0 0 1-.861-.636c-.062-.205-.021-.451-.021-.451l.39.492c.123.164.595.226.82.144.349-.123.656-.205.943-.472s.595-.554.984-.738c.267-.123.595-.144.841-.144s.554.021.841.144c.39.185.677.472.984.738.287.267.595.369.943.472.226.062.697.021.82-.144l.39-.492s.041.246-.021.451c-.185.615-.697.759-1.292.574-.41-.123-.718-.39-1.005-.656s-.574-.615-.902-.779c-.205-.103-.513-.123-.738-.123-.205 0-.513.021-.738.123-.349.164-.615.513-.902.779s-.595.533-1.005.656c-.205.041-.349.062-.472.062z" class="e"/><use xlink:href="#d" x="-27.81" y="37.954" class="l"/><use xlink:href="#d" x="-27.81" y="37.954" class="P Q i"/><use xlink:href="#e" x="-27.81" y="37.954" class="m"/><use xlink:href="#f" x="-27.81" y="37.954" class="n"/></g><g transform="matrix(.314402 0 0 .314402 277.187569 -51.990675)"><g transform="matrix(.555653 0 0 .555653 568.082151 151.697378)"><g transform="matrix(.887444 .716411 -.716411 .887444 231.82883 413.8722)"><path d="M-525.111 422.876c.453.025 1.145.031 1.782-.225.594-.239 1.149-.74 1.149-.74.383.629-.223 1.422-.523 2.165 1.045-.244 2.219-.564 2.767-1.709.625 1.342.445 1.533.327 2.106.544-.088 1.74-.072 2.473-1.898.55.579.342 1.356.473 1.906.929-.238 1.46-.977 2.246-2.421.944.48.65 1.429.854 2.19 1.312-.133 2.304-1.926 2.628-3.01.574.536.896 1.168.919 1.914 1.1-.221 1.543-1.566 2.236-2.484l7.147-2.437-4.134-6.039s-2.054-.936-3.377-.536c-4.155 1.257-7.576 3.271-11.711 4.59-1.727.551-3.604.898-5.686.993-1.777.081-4.038-.157-5.065-.428 0 0-1.86-.769-2.838-.747-.855.02-1.735.295-2.449.765-.481.317-.851.805-1.126 1.312-.105.194-.186.634-.186.634l6.532 4.006s1.954 1.086 3.023 1.071c.907-.012 1.633-1.028 2.538-.979z" stroke-width=".395" class="W h"/><path d="M-509.549 412.764c-.232.904-.836 1.769.094 2.906 2.112-.653.389 1.673 1.471 2.475.136.36.071.705-.034 1.046-.605.584-1.182 1.17-1.383 1.796-.559-.955-1.474-1.419-2.35-1.937.041 1.164-.563 3.124-1.212 4.091-.217-.746-.32-2.385-.914-3.114-.532.839-1.483 2.471-2.229 3.273-.168-.652-.244-1.993-.676-2.499-.729.968-1.37 2.362-2.055 3.008.244-.757.556-3.057.539-4.2-.815 1.122-1.686 2.502-3.214 3.422.292-.665.718-1.567.544-2.39-1.73.834-3.651.676-5.079.855-3.678.461-4.411.046-6.493-1.032-2.488-1.946-3.486-.491-2.739-3.274.428-.615 2.242-.043 4.66.572 7.371 1.874 15.978-2.984 21.07-4.999z" class="X"/><path d="M-514.881 415.963c-4.688 4.19-14.967 5.885-17.65 2.236 3.63 1.809 13.712-.3 17.65-2.236z" class="f"/><g transform="matrix(.322112 .696439 -.696439 .322112 -301.0679 380.38955)" stroke-width=".515" class="W X"><use xlink:href="#g"/><use xlink:href="#g"/><use xlink:href="#g" x="1.924" y="-0.962"/><use xlink:href="#g" x="1.924" y="-0.962"/><use xlink:href="#g" x="4.291" y="-2.442"/><use xlink:href="#g" x="4.291" y="-2.442"/></g></g><g class="W g h"><path d="M-490.503 442.312c.68.471.996 1.079 1.255 1.989.416-.596.97.195.827-3.181.509.261 1.362.879 1.532 1.734.38-.535.926-1.579.708-3.872.48.291.878.668.903 1.433.799-1.189 1.172-2.579.555-4.439.386-.355.984-.117 1.744.575 0 0-.012-2.289-.394-3.494-1.329-2.55-1.36-6.833-.503-9.568.961-3.065 5.341-8.764 5.341-8.764l-5.819-.829s-7.099 5.773-9.286 9.584c-.519.903-.899 1.96-.87 3.001.063 2.271 1.704 5.117 1.252 7.297-.335 1.618-1.643 2.34-2.685 3.193-.689.564-3.625 1.492-4.419 1.895-3.049 1.547-3.609 5.508.589 5.32 2.742-.123 9.06 1.768 9.27-1.875z"/><path d="M-465.428 387.87s-2.05-.479-3.3-.202c-2.607.578-3.364 1.741-5.859 2.694-2.8 1.069-6.586-.467-10.573-.458-4.812.01-9.333 1.495-10.227 5.258-.284 1.193-.322 2.936 1.026 4.54 1.137 1.352 3.221 2.587 7.366 3.506 6.424 1.424 16.523.801 22.94 2.256 2.64.599 3.507 1.719 3.55 3.876.04 2.002-1.697 2.816-3.448 2.947-2.778.207-3.892-2.035-7.631-3.25-.998-.324-2.058-.149-2.058-.149-2.212-1.04-3.891-1.95-6.608-2.638-2.133-.54-5.615-1.025-7.815-1.066-4.352-.08-8.35.868-12.603-.058-2.194-.477-5.788-3.612-8.315-4.917-3.309-1.708-5.97-1.516-5.97-1.516l-4.371 4.682 1.69 7.706s-1.744 2.253-2.036 3.802c-.919 4.865-.478 11.135-1.31 16.015-.386 2.264-1.712 5.698-3.486 7.857-1.147 1.396-.956.952-2.569 2.452-.942.876-1.713 1.582-2.204 2.772-.291.707-.353 1.84-.16 2.58.214.818 1.365 1.893 1.365 1.893 1.953-.578 3.906-1.965 5.859-4.323 0 0 1.715-.66 2.6-1.242 1.225-.805 2.323-1.886 3.07-3.147.264-.445.635-1.142.711-1.921.072-.727-.143-1.553-.143-1.553.837-.056 1.321.975 1.914 1.67.304-1.186.599-2.542-.27-3.699 1.687.075 1.785.358 2.302.779.198-.597.844-1.798-.616-3.502.875-.251 1.552.369 2.177.527.249-1.064-.218-1.992-1.265-3.547.982-.701 1.788.096 2.665.29.558-1.397-.734-3.346-1.659-4.244.845-.298 1.654-.291 2.42.079.357-1.229-.771-2.386-1.334-3.571 0 0 2.87.502 4.172.5 1.47-.002 2.988-.384 4.368-.89 4.917-1.802 8.853-5.254 12.289-6.761 1.083-.475 2.694-.681 3.626.047.522.407 1.007.651 1.468 1.404.891 1.454 1.592 3.546 1.592 3.546s-.281 2.309-.022 3.192c.417 1.418 1.118 2.193 2.171 3.23.831.818 1.96 1.168 3.975 1.902 1.388.506 1.922 1.682 2.906 2.785 1.151 1.291 2.419 2.414 2.987 4.048.216.621.352 1.287.331 1.944-.03.945-.219 2.812-.219 2.812s-2.775 1.39-3.576 1.546c-1.253.245-2.368 1.308-2.947 2.447-.485.955.495 2.502.495 2.502 0 .513 4.437 2.469 7.021 2.724 1.042.103 2.341-.078 3.017-.877.721-.852.272-2.84.272-2.84.07-.594 1.151-.055 1.679-.248.795-.291 1.591-.985 1.006-1.597-.871-.913-.766-2.369-.293-2.369.826-.034 1.151.462 1.906 1.032-.039-.729.286-.799-.963-3.239.563-.098 1.175.183 1.826.762-.019-.656.229-2.121-1.327-3.819.558-.057 1.103.003 1.584.599-.079-1.43-.62-2.764-2.233-3.876.094-.516.715-.687 1.738-.593 0 0-1.104-2.065-2.029-2.926-.825-.768-2.221-.995-2.995-1.886l-2.535-2.918c-1.055-1.214-1.319-3.361-1.802-4.737a19.66 19.66 0 0 0-1.306-2.916c-.633-1.142-.671-2.269-.586-3.504 0 0 .797.148 1.745.698 1.088.631 2.406 1.705 3.468 2.222 1.911.929 4.553.325 6.004 1.877.605.647.54 1.703.077 2.459-.604.985-2.744 1.087-2.744 1.087s2.566 2.565 5.131.398c1.052-.889 1.298-2.545 1-3.89-.37-1.671-3.112-2.964-3.112-2.964s2.635-1.428 2.536-4.762c-.059-1.991-.837-4.062-2.771-5.225-2.721-1.636-8.384-1.895-9.263-2.217-.997-.365-1.737-.898-2.416-1.431-1.157-.909-2.138-1.817-3.918-1.894 1.118.963 1.631 1.654 1.504 3.167-2.097-2.523-2.483-3.645-5.938-3.879 1.469 1.074 2.093 1.987 2.375 3.8-2.248-1.913-3.624-3.707-6.492-3.483 1.355.778 2.094 1.965 2.692 3.167-3.498-1.099-3.077-3.569-7.125-2.296.959.302 1.56.765 2.256 1.742 0 0-5.681-.893-5.344-4.513.249-2.67 4.371-3.029 7.521-2.85 4.584.26 7.008 4.217 13.459 5.542 2.916.599 5.974-1.267 8.946-1.108 1.126.06 3.088.871 3.088.871-.836-2.064-2.416-3.289-6.413-3.246 3.377-3.906 6.515-2.82 8.942-2.891 1.647-.049 2.305-.95 3.092-2.492 0 0-1.879.544-3.088.475-1.716-.099-3.696-1.676-5.384-1.346-1.893.37-3.718 2.897-5.463 3.721-2.091.988-3.642.554-3.642.554 3.797-2.106 3.038-3.715 5.849-5.498z"/></g><g class="X"><g class="W g"><use xlink:href="#h"/><use xlink:href="#h"/><use xlink:href="#h" x="1.683" y="-0.842"/><use xlink:href="#h" x="1.683" y="-0.842"/><use xlink:href="#h" x="3.755" y="-2.137"/><use xlink:href="#h" x="3.755" y="-2.137"/></g><path d="M-508.937 418.79c2.39-.965 3.524-2.843 4.226-5.036 2.134-1.472 3.288-3.622 3.415-6.483 9.006-.372 17.911-.563 24.95 2.547 1.976 4.455 4.126 8.706 5.673 13.661 1.546 2.432 3.106 4.599 4.689 6.31 1.655 2.263 3.656 4.474.753 7.41-.289 1.592-.829 3.166-.094 4.832-.968.769-1.678 1.905-2.106 3.446l-1.1 1.331c-2.624-.808-4.723-2.085-6.31-3.821 1.801-1.679 4.42-2.656 7.294-3.415 1.044-2.254.505-4.795-.116-7.352-.914-2.705-2.392-4.892-5.152-5.905-3.748-1.258-7.708-2.313-7.41-7.468-1.091-6.21-3.515-10.567-12.851-5.326-4.749 4.985-10.032 6.766-15.861 5.268z"/><g class="W g"><use xlink:href="#i"/><use xlink:href="#i"/><use xlink:href="#i" x="3.026" y="0.965"/><use xlink:href="#i" x="3.026" y="0.965"/><use xlink:href="#i" x="-2.582" y="-1.173"/><use xlink:href="#i" x="-2.582" y="-1.173"/></g></g><path d="M-472.888 447.062c.772-2.345 2.166-3.322 4.096-3.12m-6.858 1.94c.772-2.345 2.166-3.322 4.096-3.12" class="P g W"/><path d="M-499.413 409.742c-.427 2.034-1.241 3.927-2.865 5.526-.606 1.319-1.914 2.172-3.152 3.07 3.628-1.193 6.834.46 11.257-6.099 1.293-1.103 3.415-1.732 5.444-2.415-3.374-.188-6.583-.517-10.683-.082zm16.757.886c2.074 2.36 3.205 5.014 4.052 7.757-1.205 5.761 3.853 5.032 6.136 7.178-2.524-8.466-5.738-14.173-10.188-14.935z" class="f"/><path d="M-485.7 417.028l1.515 2.743c-.988 4.211-2.147 8.331-1.555 13.385l-.737 1.842c.866.731 1.057 1.773 1.228 2.824-.558-.498-1.177-.947-2.006-1.228.235 1.051.32 2.101-.041 3.152-.456-.853-1.45-1.267-2.497-1.637.388 1.214.412 2.429.368 3.643-.48-.873-.975-1.746-1.883-2.62-.212 1.147-.152 2.349-.86 3.397-4.13.31-7.952.443-9.21-.901 3.642-1.391 7.239-2.835 9.865-5.403l-.778-8.105c.675-5.153 3.432-8.315 6.59-11.093z" class="X"/><path d="M-497.37 439.036c-.679.297-.745.67-1.128.733-.093.074-.423.214-.771.388-.739.388-1.288.962-1.491 1.689s-.063 1.455.546 2.279l.916.079c-1.082-.292-1.255-1.635-1.073-2.209.172-.545.598-1.053 1.268-1.404v.008c.326-.163.625-.267.835-.434s.474-.371.65-.613.249-.515.249-.515zm3.41.173c-.654.299-.717.673-1.086.736-.089.074-.407.215-.742.391-.711.39-1.241.966-1.436 1.697s-.061 1.463.526 2.291l.806.352c-.84-.48-1.116-1.966-.957-2.493.165-.547.576-1.059 1.221-1.412v.008c.314-.164.602-.268.804-.436s.456-.373.625-.616.24-.518.24-.518zm-1.933 5.467c.081.046.165.086.256.112z" fill-opacity=".89" class="j"/><g class="W X g"><use xlink:href="#i" x="-28.88" y="-2.88"/><use xlink:href="#i" x="-28.88" y="-2.88"/><use xlink:href="#i" x="-25.515" y="-2.621"/><use xlink:href="#i" x="-25.515" y="-2.621"/><use xlink:href="#i" x="-22.02" y="-2.362"/><use xlink:href="#i" x="-22.02" y="-2.362"/></g><path d="M-489.179 421.648c-.683 1.321-1.838 3.8-2.006 6.099-.189 3.207.242 5.448.512 7.941.635.079 1.977-.479 2.395-1.596-.56-2.919-1.191-8.517-.901-12.444z" class="f"/><path d="M-518.978 421.899c.773.732 1.667 1.321 3.316 1.023.519-2.468 2.121-2.682 3.52-3.316.434.065.742.32 1.023.614.246.927.512 1.826 1.023 2.374-1.262.028-2.232.683-3.234 1.269 1.183.604 2.056 1.519 2.661 2.702-.863-.197-1.809-.23-2.865-.041.541.995 1.005 2.087 1.392 3.275-.743-.194-1.486-.1-2.229.05l1.433 3.602c-.619-.663-2.312-2.135-3.461-2.751.667 1.434 1.403 2.797 1.474 4.83-.501-.659-1.008-1.314-1.924-1.596-.541 6.084-2.985 8.504-6.467 8.923l-3.152 2.169-1.965.901c5.058-5.439 9.36-11.899 9.455-24.027z" class="X"/><path d="M-518.141 425.273c1.106 6.734-1.079 14.075-4.834 15.485 2.024-3.248 4.193-10.623 4.834-15.485z" class="f"/><path d="M-473.642 408.887l1.55.033 2.113.753 2.171 1.36 1.36.839 1.823.492 1.997-.347 1.389-.666.781-1.476-.116-1.187-.318-1.534-.868-.868-2.113-.839-4.052-.637-10.593-.608-4.081-.318-2.721-.405-2.923-.55-2.547-.926-2.606-1.348-1.248-1.474-.716-1.494-.205-1.31.45-1.944 1.064-1.617 1.064-1.044 2.19-1.064 1.76-.471 2.272-.287 2.456-.062 2.988.389 3.009.307 1.76.225 1.699-.45 2.435-1.003 2.436-1.433 1.576-.409 2.978.354-1.197.956-1.044 1.208-.655.88-.921 1.003-.962.757-1.071.694.968.124 1.822-.246 2.149-1.228 1.596-1.474 1.985-1.289.839-.307 2.517.675 2.067.839 2.088-.164 1.544-.336-.439.397-3.234.941c-4.084-.185-7.723.754-10.663 3.459-1.786.139-3.584.1-5.424-.573-6.444-1.995-12.899-4.62-19.238-.45-2.783 3.937-1.296 6.651 4.871 8.023 9.499 1.166 25.265 1.584 27.445 3.623 1.663 2.831 2.656 5.573-.532 7.757-7.018 2.146-9.057-2.099-12.726-4.252z" class="X"/><path d="M-476.552 390.811c2.995-.431 6.181-1.814 8.882-.778l2.241-2.163-1.265-.267-1.512-.043-.651.022-1.346.449-1.158.586-1.729 1.013-1.763.731z" class="f"/><path d="M-465.428 387.87s-2.05-.479-3.3-.202c-2.607.578-3.364 1.741-5.859 2.694-2.8 1.069-6.586-.467-10.573-.458-4.812.01-9.333 1.495-10.227 5.258-.284 1.193-.322 2.936 1.026 4.54 1.137 1.352 3.221 2.587 7.366 3.506 6.424 1.424 16.523.801 22.94 2.256 2.64.599 3.507 1.719 3.55 3.876.04 2.002-1.697 2.816-3.448 2.947-2.778.207-3.892-2.035-7.631-3.25-.998-.324-2.058-.149-2.058-.149l1.638 3.189s.797.148 1.745.698c1.088.631 2.406 1.705 3.468 2.222 1.911.929 4.553.325 6.004 1.877.605.647.54 1.703.077 2.459-.604.985-2.744 1.087-2.744 1.087s2.566 2.565 5.131.398c1.052-.889 1.298-2.545 1-3.89-.37-1.671-3.112-2.964-3.112-2.964s2.635-1.428 2.536-4.762c-.059-1.991-.837-4.062-2.771-5.225-2.721-1.636-8.384-1.895-9.263-2.217-.997-.365-1.737-.898-2.416-1.431-1.157-.909-2.138-1.817-3.918-1.894 1.118.963 1.631 1.654 1.504 3.167-2.097-2.523-2.483-3.645-5.938-3.879 1.469 1.074 2.093 1.987 2.375 3.8-2.248-1.913-3.624-3.707-6.492-3.483 1.355.778 2.094 1.965 2.692 3.167-3.498-1.099-3.077-3.569-7.125-2.296.959.302 1.56.765 2.256 1.742 0 0-5.681-.893-5.344-4.513.249-2.67 4.372-3.029 7.521-2.85 4.584.26 7.008 4.217 13.459 5.542 2.916.599 5.974-1.267 8.946-1.108 1.126.06 3.088.871 3.088.871-.836-2.064-2.416-3.289-6.413-3.246 3.377-3.906 6.515-2.82 8.942-2.891 1.647-.049 2.305-.95 3.092-2.492 0 0-1.879.544-3.088.475-1.716-.099-3.696-1.676-5.384-1.346-1.893.37-3.718 2.897-5.463 3.721-2.091.988-3.642.554-3.642.554 3.797-2.106 3.038-3.715 5.849-5.498z" class="P W g"/><path d="M-473.806 409.072l.55.014.441.572 1.237 1.823-.072.42-.355-.051-.188.072-.109.101-1.99-1.657z" class="h"/><path d="M-505.704 403.672c1.593.709 3.038-.709 3.353-.877 0 0-.77-.393-1.408-1.504-.429-.747-.733-2.131-.854-2.782-.447-2.42.472-2.932.529-2.753 0 0 1.537-.777 2.135-1.385.567-.576.742-1.464.809-2.268.1-1.207-.599-2.863-.599-2.863-2.363.189-2.916.582-3.366 1.376 0 0-.214-1.19-.691-2.237a7.13 7.13 0 0 0-1.182-1.752c-.47-.485-.906-.675-.906-.675.072.623-.408 1.268-.634 1.741 0 0-.567-2.346-1.282-3.117-.551-.594-1.943-1.295-1.933-1.294s-1.432.283-2.132.692c-.907.531-2.13 2.613-2.13 2.613-.079-.518-.352-1.274-.103-1.85 0 0-.473.056-1.063.384-.574.319-1.26.904-1.639 1.335-.76.864-1.309 1.941-1.309 1.941-.169-.935-.564-1.432-2.824-2.291 0 0-1.149 1.383-1.402 2.567-.169.79-.257 1.69.118 2.405.396.755 1.643 1.943 1.643 1.943.107-.156.838.601-.29 2.788-.304.589-.995 1.825-1.622 2.416-.933.879-1.783 1.032-1.783 1.032.711 1.286.93 1.823 2.955 1.81-4.082 3.881-3.878 9.142.215 13.081.153-.562.763-1.875 1.158-2.402-.054-.032.412 2.547 1.889 3.688.479.37 1.014 2.726 1.724 3.392.648.607 1.529 1.244 1.529 1.244s.341-1.974 1.185-2.392c.85-.42 2.448-1.126 2.973-1.376 1.056-.501 2.698-3.128 2.698-3.128l.053 2.926c5.671-2.94 6.471-7.178 4.187-12.43z" class="X"/><path d="M-518.284 397.929c.496 1.669.147 5.159-.369 6.169l4.092 1.018 3.887-.089c-.529-1.523.58-4.797 1.199-5.944l-2.803.45-1.429-1.081-2.226.828-2.35-1.352z" fill="#504416"/><path d="M-517.385 398.792c-.253 1.904.086 2.202.28 2.914l.787-2.55-1.067-.364zm5.673 1.014l.048 2.669c.384-.63.792-.823 1.077-2.722l-1.125.054zm-5.287 2.616c-.384.63-.792.823-1.077 2.723l1.125-.054-.048-2.669zm5.07.717l-.787 2.55 1.067.364c.253-1.904-.086-2.202-.28-2.914z" class="Z"/><path d="M-515.906 387.957c-.77.105-1.511.245-2.053.41-1.37.417-1.349 1.009-1.349 1.009 2.565-.29 4.522.422 6.241 1.527l-1.168 2.344s.556.701.961.778 1.176-.369 1.176-.369l-.613-2.787c2.205-.321 4.351-.229 6.418.427 0 0 .062-.635-1.064-1.398-1.34-.907-3.989-1.977-5.246-2.119-.655-.074-2.019.002-3.303.177zm.144 7.683a1.22 1.22 0 0 0-1.064 1.033c-.045.319.041.644.239.902s.493.429.819.475.656-.037.919-.23.435-.481.48-.801c.094-.665-.38-1.281-1.058-1.377-.111-.016-.224-.016-.335-.002zm3.828.541a1.22 1.22 0 0 0-1.064 1.033c-.045.319.041.644.239.902s.493.429.819.475.656-.037.919-.23.435-.481.48-.801c.094-.665-.38-1.281-1.058-1.377-.111-.016-.224-.016-.335-.002zm-6.987 4.802c-2.626.365-5.059 4.118-4.484 8.044 1.511-2.829 5.028-6.352 4.737-8.068l-.254.024zm9.458 2.229c-.11 1.66 1.714 4.871 1.741 7.918 1.197-4.072.141-7.5-1.741-7.918zm-9.736 4.167s-.493 1.49-.371 2.626c.082.76.214 1.55.589 2.216.388.689 2.396 1.814 2.396 1.814l-.253 1.772s1.835-1.114 2.148-1.83c.239-.546.883-2.751.883-2.751l-1.825 1.876s-2.292-1.347-2.753-2.193c-.71-1.302-.813-3.532-.813-3.532z" class="f"/><path d="M-518.077 391.058c-.732.059-1.207.394-1.292.993-.113.8.541 1.553 1.725 1.721s2.214-.567 2.327-1.367-.763-1.147-1.948-1.315a3.71 3.71 0 0 0-.813-.033zm8.305 1.205c-.574.056-.967.279-1.037.779-.113.8.672 1.79 1.857 1.958s2.022-.375 2.135-1.175-.572-1.338-1.756-1.506c-.444-.063-.853-.089-1.197-.056z" class="Z"/><path d="M-518.093 390.861c-.266.024-.506.081-.713.172-.413.183-.684.53-.748.989s.098.907.431 1.253.833.605 1.46.693c1.277.18 2.396-.597 2.53-1.541.067-.472-.184-.848-.578-1.079s-.913-.372-1.517-.458c-.308-.043-.599-.054-.865-.03zm.039.38c.228-.018.487-.008.771.032.58.082 1.065.229 1.377.413s.436.36.389.688c-.093.655-1.002 1.367-2.094 1.213-.557-.079-.972-.292-1.234-.564a1.12 1.12 0 0 1-.329-.947.84.84 0 0 1 .537-.702c.158-.07.354-.115.582-.133zm8.266.833c-.122.014-.239.035-.349.063-.442.114-.787.405-.854.877-.133.944.727 2.001 2.004 2.181.627.089 1.178-.021 1.594-.261s.697-.625.762-1.085a1.24 1.24 0 0 0-.445-1.159c-.346-.29-.86-.486-1.476-.573-.453-.064-.869-.085-1.236-.043zm.034.389a4.65 4.65 0 0 1 1.147.036c.569.08 1.007.25 1.271.471a.84.84 0 0 1 .322.825c-.048.34-.251.629-.578.818s-.785.279-1.342.2c-1.092-.154-1.768-1.09-1.676-1.746.046-.328.214-.463.565-.553a2.15 2.15 0 0 1 .291-.052z" class="j"/><path d="M-518.267 389.339c-.53.002-1.144.178-1.471.595-.196.25-.135.954-.135.954l.818-.103.954.135 2.103.614 2.153-.426-1.878-.569c-.845-.335-1.635-1.203-2.544-1.2zm10.808 1.527c-.776-.088-1.58.428-2.371.505-.67.065-2.01.02-2.01.02l1.951 1.006 2.191-.007.93.131.757.326s.254-.659.135-.954c-.198-.492-.74-.831-1.249-.979-.109-.032-.223-.035-.334-.047z" class="h"/><path d="M-518.454 404.136c-1.384 5.323 7.022 6.754 7.433 1.05-2.183.148-4.501.068-7.433-1.05z" class="X"/><path d="M-518.722 403.621l-.108.423c-.371 1.427-.074 2.655.595 3.54s1.691 1.415 2.769 1.584 2.22-.025 3.137-.676 1.572-1.77 1.682-3.291l.037-.433-.443.035c-2.155.146-4.402.068-7.277-1.028l-.392-.153h0zm.336.581c2.522.877 5.428 1.079 7.364.985-.176 1.069-.646 2.383-1.288 2.838-.731.518-2.242.838-3.143.697s-2.17-1.061-2.701-1.764c-.468-.62-.401-1.726-.232-2.756h0z" class="j"/><path d="M-515.753 399.269c-.544 3.452-.898 7.316.259 10.671 2.041-2.903 2.767-6.681 3.201-10.148-.014-.136-.719-.342-.818-.437-.244-.233-.682-.804-.682-.804s-.611.516-.977.658c-.312.121-.981.061-.981.061z" class="W X r"/><path d="M-511.81 383.272c.01.002-1.432.283-2.131.692-.907.531-2.129 2.613-2.129 2.613-.079-.518-.352-1.274-.103-1.85 0 0-.472.056-1.062.384a7.13 7.13 0 0 0-1.639 1.335c-.76.864-1.309 1.941-1.309 1.941.757-.132 2.236-1.892 2.911-1.834.572.049.393 1.586.938 1.58.743-.008 1.234-1.242 2.032-2.168.708-.821 1.753-1.516 2.312-1.415s1.378 1.061 1.805 2.051c.505 1.169.935 2.445 1.531 2.64s.865-1.379 1.456-1.268c.702.132 1.33 2.384 2.018 2.632 0 0-.214-1.19-.691-2.237-.238-.522-.725-1.281-1.182-1.752-.47-.485-.906-.675-.906-.675.072.623-.408 1.268-.633 1.741 0 0-.567-2.346-1.282-3.117-.551-.594-1.943-1.295-1.934-1.293zm-8.492 9.829c-.632 1.516.593 2.719 2.306 2.786l-.419 1.738 1.207 1.728 1.813.363 1.547-.874 1.292 1.326 1.566.131 1.791-1.446.598-1.432 1.211-.243.974-.645.19-1.351c-.874.829-1.738 1.642-3.816 1.097.088 1.049-.077 1.73-.386 2.149-.369.5-.944.625-1.541.554-.744-.089-1.472-.816-1.816-1.207-.652.524-1.214.932-1.674.849-.96-.173-1.551-.647-1.788-1.257-.252-.646-.107-1.443.413-2.19-3.772-.457-2.601-1.607-3.469-2.075zm-1.814.732c-.304.589-1.745 3.802-2.372 4.393-.933.879-1.783 1.032-1.783 1.032.711 1.286.93 1.823 2.955 1.81-4.082 3.881-3.878 9.142.215 13.081.153-.562.763-1.875 1.158-2.402-.054-.032.413 2.547 1.89 3.688.479.37 1.014 2.725 1.724 3.391a18.55 18.55 0 0 0 1.528 1.244s.342-1.974 1.185-2.392c.85-.42 2.447-1.126 2.972-1.375 1.056-.501 2.697-3.128 2.697-3.128l.054 2.927c5.671-2.94 6.471-7.178 4.187-12.43 1.593.709 3.038-.709 3.353-.877 0 0-.77-.393-1.408-1.505-.429-.747-.711-2.135-.853-2.782l-.39-1.773-.478 2.689c-.082.583.41 2.545.41 2.545-1.016-.207-2.035-.39-2.992-1.013 0 0 1.585 3.901 1.962 5.812.204 1.033.106 2.93-.162 3.948-.284 1.079-2.138 2.929-2.138 2.929s.139-2.657.006-3.543c-.188-1.259-1.132-4.392-1.132-4.392s-.261 3.381-.694 4.438l-1.408 3.33c-.102-3.185-.294-3.342-.862-4.473 0 0-.203 4.007-1.349 5.876-.286.466-1.546.983-2.239 1.476-.769.547-.961 1.047-.961 1.047l-1.371-2.551c-.636-1.051-1.754-2.092-2.243-3.22-.717-1.657 1.079-5.682 1.079-5.682-.853.134-1.57 1.257-2.339 2.492-.628 1.009-1.356 2.083-1.676 2.829 0 0-1.112-2.59-1.21-3.39-.14-1.134.129-2.328.577-3.379.726-1.707 4.429-5.517 4.429-5.517-1.1.466-2.078 1.016-4.332.685 0 0 1.436-2.248 1.651-2.76.66-1.568.26-2.073.36-3.08zm7.965.583c-.861.103-1.926.367-1.926.367l.218.726.822.194 1.273 1.425 2.588-1.093.272-.665s-1.673-.916-2.502-.988c-.195-.017-.46 0-.747.034z" class="h"/><path d="M-505.704 403.672c1.593.709 3.038-.709 3.353-.877 0 0-.77-.393-1.408-1.504-.429-.747-.733-2.131-.854-2.782-.447-2.42.472-2.932.529-2.753 0 0 1.537-.777 2.135-1.385.567-.576.742-1.464.809-2.268.1-1.207-.599-2.863-.599-2.863-2.363.189-2.916.582-3.366 1.376 0 0-.214-1.19-.691-2.237a7.13 7.13 0 0 0-1.182-1.752c-.47-.485-.906-.675-.906-.675.072.623-.408 1.268-.634 1.741-.569-2.159-1.232-3.345-3.216-4.411-2.086.339-3.154 1.524-4.261 3.305-.079-.518-.352-1.274-.103-1.85 0 0-.473.056-1.063.384-.574.319-1.26.904-1.639 1.335-.76.864-1.309 1.941-1.309 1.941-.169-.935-.564-1.432-2.824-2.291 0 0-1.149 1.383-1.402 2.567-.169.79-.257 1.69.118 2.405.396.755 1.643 1.943 1.643 1.943.107-.156.838.601-.29 2.788-.304.589-.995 1.825-1.622 2.416-.933.879-1.783 1.032-1.783 1.032.711 1.286.93 1.823 2.955 1.81-4.082 3.881-3.878 9.142.215 13.081a10.21 10.21 0 0 1 1.158-2.402c-.054-.032.412 2.547 1.889 3.688.479.37 1.014 2.726 1.724 3.392.648.607 1.529 1.244 1.529 1.244s.341-1.974 1.185-2.392c.85-.42 2.448-1.127 2.973-1.376 1.056-.501 2.698-3.128 2.698-3.128l.053 2.926c5.671-2.94 6.471-7.178 4.187-12.43z" class="P W r"/><path d="M-522.708 387.733s-.752 1.609-.477 2.551c.219.749 1.772 2.287 1.772 2.287s.462-2.61.207-3.521c-.188-.668-1.502-1.317-1.502-1.317zm3.674 2.74a1.29 1.29 0 0 0-.503.209c-.333.224-.568.312-.646.862.429-.131.69-.329 1.027-.54.08-.054.212-.073.454-.016.484.114 1.192.536 1.924.642 1.049.151 2.305-.373 2.81-.499-.026.219-.039.855-.217 1.211-.091.182-.885.618-1.22 1.038l-.467.619c-.136.197-.25.355-.3.586-.1.467.054.926.054.926l.053.249.252.044c.929.167 1.128.47 1.445 1.131l.049.104.089.052c.105.07.184.127.274.168s.206.07.305.068c.198-.005.229-.048.412-.063l.155-.011.106-.122c.488-.547.771-.782 1.71-.685l.246.027.129-.224s.268-.4.301-.876c.016-.236-.111-.34-.187-.566l-.277-.724c-.206-.496-.764-1.377-.801-1.577-.073-.392.061-.947.097-1.164.454.263 1.526 1.215 2.569 1.359.733.101 1.531-.109 2.027-.084.248.012.369.067.432.142l.838.804c.077-.55-.149-.862-.406-1.169s-.439-.244-.788-.261c-.698-.035-1.472.153-1.955.087-1.19-.164-2.46-1.238-2.46-1.238l-.362-.237-.192.392s-.348.727-.154 1.776c.075.406.591 1.147.793 1.635l.259.673c.064.192.079.355.08.35-.006.092-.073.227-.131.36-.875-.007-1.768.531-2.24 1.024l-.213.027c-.013-.006-.051-.034-.081-.052-.317-.614-1.179-1.504-2.031-1.743-.019-.143-.046-.292-.026-.383-.001.005.067-.147.181-.313l.436-.575c.329-.413 1.075-.876 1.259-1.245.477-.955.344-1.749.344-1.749l-.084-.431-.413.127s-1.402.671-2.591.499c-.483-.07-1.174-.465-1.854-.625-.17-.04-.34-.048-.509-.018zm-1.266 2.263c-.509.931-.482 1.847-.022 2.496.384.541 1.045.825 1.79.962l-.06.314c-.058.379-.112.819-.012 1.223.206.829.768 1.44 1.445 1.873.59.377 1.327.468 1.982.344.404-.076.742-.282 1.009-.47.095-.067.105-.082.181-.144.206.306.503.673.999.923.595.301 1.321.416 1.992.217.769-.228 1.479-.66 1.906-1.399.209-.361.279-.799.328-1.179.018-.135.01-.14.019-.248.797.123 1.511-.046 2.005-.499.587-.538.826-1.408.667-2.38-.52.361.094 1.125-1.028 2.056-.361.331-.931.472-1.726.24l-.635-.389.149.806-.055.621c-.044.34-.144.744-.231.894-.31.537-.927.87-1.571 1.061-.432.128-.995.049-1.427-.17-.414-.209-.858-.882-.885-.951l-.295-.758-.335.493c-.082.121-.339.272-.557.426s-.483.293-.709.335c-.475.09-1.046.009-1.426-.234-.566-.362-1.138-1.019-1.287-1.621-.042-.169-.026-.585.026-.923s.207-.625.207-.625l.267-.463-.648.131c-.775-.056-1.359-.356-1.642-.755-.936-.785-.293-1.538-.421-2.209zm17.739-2.157s-1.442.261-1.808.85c-.498.804-.777 3.439-.777 3.439s1.918-1.047 2.336-1.706c.525-.829.248-2.583.248-2.583z" class="j"/><path d="M-517.375 391.484a.81.81 0 0 0-.544 1.294.81.81 0 0 0 .536.316c.444.063.855-.246.918-.69s-.246-.855-.69-.918a.81.81 0 0 0-.219-.001zm8.345 1.186a.81.81 0 0 0-.52 1.291.81.81 0 0 0 1.138.16.81.81 0 0 0 .316-.536c.063-.444-.246-.855-.69-.918a.81.81 0 0 0-.243.002z" fill="#2b2200"/></g><g transform="matrix(.186892 0 0 .186892 220.83133 362.9797)"><g transform="matrix(1.611776 0 0 1.611776 -722.26285 -1181.0327)"><path d="M481.628 823.554c.574-5.396.268-15.575-2.571-20.2-.959-1.563-3.31-3.383-5.142-3.305-1.805.076-4.29.61-5.142 2.204-.781 1.461-1.288 4.598-1.102 6.244.258 2.286 2.938 6.978 2.938 6.978s-9.604-1.927-12.854-4.407c-3.216-2.454-6.687-7.105-7.713-11.018-.352-1.343-1.725-5.684.009-10.893 1.006-3.023 4.034-7.069 6.376-9.085 6.117-5.265 17.996-3.735 20.426-2.426 3.213 1.731 7.128 5.412 8.447 8.814 1.024 2.641 3.152 10.437 3.673 13.222 1.062 5.683 1.37 7.827 1.836 13.589.32 3.955 1.203 7.506.367 11.385-.45 2.09-1.012 6.886-2.234 10.045-1.228 3.175-3.118 4.711-4.744 6.115-3.323 2.87-13.956 4.407-13.956 4.407s5.842-7.37 7.345-10.651c1.785-3.896 3.587-6.756 4.04-11.018zm26.042 0c-.574-5.396-.268-15.575 2.571-20.2.959-1.563 3.31-3.383 5.142-3.305 1.806.076 4.29.61 5.142 2.204.781 1.461 1.288 4.598 1.102 6.244-.258 2.286-2.938 6.978-2.938 6.978s9.604-1.927 12.855-4.407c3.216-2.454 6.688-7.105 7.713-11.018.352-1.343 1.725-5.684-.009-10.893-1.006-3.023-4.034-7.069-6.376-9.085-6.117-5.265-17.996-3.735-20.425-2.426-3.213 1.731-7.128 5.412-8.447 8.814-1.024 2.641-3.153 10.437-3.673 13.222-1.062 5.683-1.37 7.827-1.836 13.589-.32 3.955-1.203 7.506-.367 11.385.45 2.09 1.013 6.886 2.234 10.045 1.228 3.175 3.118 4.711 4.744 6.115 3.323 2.87 13.956 4.407 13.956 4.407s-5.842-7.37-7.345-10.651c-1.785-3.896-3.587-6.756-4.04-11.018z" class="a o"/><path d="M517.547 844.619l-2.801-.045-8.972-2.82-10.767-9.485-7.947 7.562-5.383 2.563-6.152 2.051-4.084.278s7.232-4.868 9.728-7.606c1.785-1.958 3.605-5.052 4.776-7.429 2.017-4.096 5.129-14.327 5.238-14.397l2.292-.344 4.422.354s3.113 10.231 5.129 14.327c1.17 2.377 2.991 5.471 4.776 7.429 2.496 2.737 9.746 7.561 9.746 7.561zm1.437-29.396s5.462-2.304 7.089-4.156c1.735-1.975 2.899-5.491 3.422-8.067.395-1.94-.568-6.058-1.467-7.823-1.358-2.667-3.021-4.208-5.867-5.134-1.953-.635-4.92-.716-6.845 0-1.998.743-4.794 2.48-6.111 4.156-1.986 2.527-3.157 5.432-3.911 8.556-.465 1.925-1.508 7.799-1.467 9.778l.244 7.334 3.667 6.111.091-.278-.274-10.135v-4.246l1.917-6.574 3.15-4.246 3.698-.548 3.561 1.78 1.507 3.835-.274 4.656zm-48.657-.011s-5.462-2.304-7.089-4.156c-1.735-1.975-2.899-5.491-3.422-8.067-.395-1.94.568-6.058 1.467-7.823 1.358-2.667 3.021-4.208 5.867-5.134 1.953-.635 4.92-.716 6.845 0 1.998.743 4.794 2.48 6.111 4.156 1.986 2.527 3.157 5.432 3.911 8.556.465 1.925 1.508 7.799 1.467 9.778l-.244 7.334-3.667 6.111-.091-.278.274-10.135v-4.246l-1.917-6.574-3.15-4.246-3.698-.548-3.561 1.78-1.507 3.835.274 4.656z" class="p a"/><path d="M481.628 823.554c.574-5.396.634-15.82-2.571-20.2-4.878-6.666-12.173-2.868-11.385 5.142.225 2.29 2.938 6.978 2.938 6.978s-9.758-1.737-12.854-4.407c-10.425-8.991-11.708-21.912-1.327-30.996 6.074-5.315 17.996-3.735 20.426-2.426 3.213 1.731 7.128 5.412 8.447 8.814 1.024 2.641 3.152 10.437 3.673 13.222 1.062 5.683 1.37 7.827 1.836 13.589.32 3.955 1.203 7.506.367 11.385-.45 2.09-1.012 6.886-2.234 10.045-1.228 3.175-3.118 4.711-4.744 6.115-3.323 2.87-13.956 4.407-13.956 4.407s5.842-7.37 7.345-10.651c1.785-3.896 3.587-6.756 4.04-11.018zm26.042 0c-.574-5.396-.634-15.82 2.571-20.2 4.878-6.666 12.173-2.868 11.385 5.142-.225 2.29-2.938 6.978-2.938 6.978s9.758-1.737 12.855-4.407c10.425-8.991 11.708-21.912 1.327-30.996-6.074-5.315-17.996-3.735-20.426-2.426-3.213 1.731-7.128 5.412-8.447 8.814-1.024 2.641-3.153 10.437-3.673 13.222-1.062 5.683-1.37 7.827-1.836 13.589-.32 3.955-1.203 7.506-.367 11.385.45 2.09 1.013 6.886 2.234 10.045 1.228 3.175 3.118 4.711 4.744 6.115 3.323 2.87 13.956 4.407 13.956 4.407s-5.842-7.37-7.345-10.651c-1.785-3.896-3.587-6.756-4.04-11.018z" class="P W s"/><path d="M455.613 801.255l.896-5.597c.517-2.255 1.654-5.376 3.358-6.941 1.801-1.653 4.53-2.952 6.941-3.358 2.12-.357 5.08-.303 7.164.224 1.602.405 3.516 1.602 4.926 2.463 1.066.651 3.358 2.463 3.358 2.463s-4.166-6.607-6.941-8.284c-2.706-1.636-7.138-2.321-10.299-2.239-2.297.06-4.804 1.19-6.717 2.463-2.271 1.51-4.709 4.586-5.597 7.164-.634 1.842-.556 4.626 0 6.493.596 2 2.911 5.149 2.911 5.149zm58.211-16.12s5.689-.939 8.06-.448c2.941.609 6.807 2.379 8.956 4.478 1.848 1.806 4.03 7.612 4.03 7.612s.181-6.094-.672-8.508c-.515-1.458-1.732-3.252-2.911-4.254-1.809-1.537-4.791-3.325-7.164-3.358-1.246-.018-4.1-.081-5.79.693-2.878 1.317-4.509 3.785-4.509 3.785z" class="a q"/></g><path d="M74.892 210.959s13.83-11.343 16.118-24.177c2.058-11.544-7.108-25.066-7.803-30.503-2.778-21.746 3.11-50.717 3.64-53.085 2.108-9.406 4.761-13.431 6.174-16.511 1.017-2.217 3.922-6.626 6.827-10.901 1.667-2.453 5.38-7.019 7.271-11.664 2.005-4.923 2.142-9.934 2.171-12.609.049-4.556-.811-8.431-2.02-12.14-1.149-3.526-4.894-9.296-10.321-12.613l-12.381-7.588c-5.946-3.76-9.605-16.128-9.676-16.128s-3.73 12.367-9.676 16.128l-12.165 7.588c-5.427 3.317-9.172 9.087-10.321 12.613-1.209 3.709-2.069 7.584-2.02 12.14.029 2.675.166 7.686 2.171 12.609 1.891 4.645 5.604 9.212 7.271 11.664 2.905 4.274 5.81 8.683 6.827 10.901 1.412 3.08 4.065 7.105 6.174 16.511.531 2.368 6.419 31.339 3.64 53.085-.695 5.437-10.077 18.959-8.019 30.503 2.287 12.833 16.118 24.177 16.118 24.177z" class="a o"/><path d="M74.892 210.959L74.875 4.724" stroke-width="1.501" class="P i"/><path d="M75.312 210.54l11.276-12.577 4.337-8.24-.867-11.276-3.036-11.71-4.771-10.409v-16.914l1.735-16.914 2.168-18.649 4.771-14.746 7.807-10.843 6.506-11.276 2.602-6.072 1.301-10.843-1.735-10.409-5.491-8.799-10.556-7.248s6.254 7.031 10.356 13.643c2.203 3.55 2.175 7.906 2.221 8.909.195 4.289-.132 6.277-1.301 10.409-1.082 3.822-3.375 8.012-5.638 11.276-2.536 3.657-7.071 7.753-9.108 11.71-2.92 5.674-4.89 14.114-6.072 20.384-1.451 7.698-1.651 18.205-2.168 26.022-.525 7.929-1.93 18.534-1.301 26.456.4 5.037 2.579 12.099 3.47 16.481.616 3.031 2.209 6.908 2.602 9.975.381 2.968.407 7.01 0 9.975-.46 3.346-1.746 7.721-3.036 10.843-1.423 3.446-6.072 10.843-6.072 10.843zm-15.18-19.083s.264-6.731.867-9.541c.837-3.902 2.933-8.841 4.337-12.577 1.334-3.551 3.983-7.999 4.771-11.71 1.729-8.15 1.353-19.44.867-27.757-.36-6.172-2.167-14.263-3.036-20.384-.683-4.81-1.961-12.297-3.47-16.914-1.609-4.925-4.245-11.213-6.939-15.639-2.289-3.761-5.39-7.461-8.24-10.816-2.205-2.595-8.24-7.807-8.24-7.807l.839.316.995 4.645 3.982 6.636 3.982 7.3 6.636 10.286 4.314 10.95 2.323 11.613 1.991 15.927.995 15.927v14.931l-3.65 7.632-4.314 11.613-1.327 9.622z" class="a p"/><path d="M74.892 210.96s13.83-11.343 16.118-24.177c2.058-11.544-7.108-25.066-7.803-30.503-2.778-21.746 3.158-50.707 3.64-53.085 2.068-10.189 7.587-19.89 13.001-27.412 5.533-7.688 9.323-14.479 9.442-24.273.056-4.556-.513-8.541-2.02-12.14-4.653-11.113-12.887-14.008-22.702-20.201-5.95-3.754-9.605-16.128-9.676-16.128s-3.806 12.25-9.676 16.128c-8.465 5.592-18.86 9.558-22.486 20.201-1.258 3.693-1.978 7.584-2.02 12.14-.091 9.836 3.751 16.26 9.442 24.273 6.243 8.791 11.248 19.773 13.001 27.412.543 2.365 6.419 31.339 3.64 53.085-.695 5.437-10.077 18.959-8.019 30.503 2.287 12.833 16.118 24.177 16.118 24.177z" stroke-width="1.5" class="P W"/><path d="M67.225 79.19l1.185-53.344-9.483 7.112c-2.134 1.6-5.782 3.023-7.112 5.334-3.036 5.276-4.369 11.088-1.778 16.596 1.533 3.258 7.038 7.433 9.483 10.076 3.296 3.563 7.705 14.225 7.705 14.225zm13.632-8.298V32.366s2.114 4.061 3.556 5.334c1.192 1.053 3.561 1.306 4.742 2.371 1.722 1.553 3.697 4.246 4.149 6.52.598 3.011-.296 7.388-1.778 10.076-1.276 2.315-4.924 3.82-6.52 5.927-1.681 2.218-4.149 8.298-4.149 8.298zm-9.694 123.283c-.495-5.136-.382-17.189-.382-17.189s-4.383 6.483-5.117 9.416c-.388 1.553-.776 4.91-.375 6.459.918 3.544 6.902 10.819 6.902 10.819l-1.028-9.505z" class="a q"/><g transform="matrix(1.611776 0 0 1.611776 -722.26279 -1181.0327)"><g class="a"><path d="M513.859 820.357l-4.128-5.718h-30.15l-4.143 5.718 4.143 5.692h30.15z" class="o"/><path d="M477.697 817.991l34.196.185-2.526-3.574-29.883-.062-1.787 3.45z" class="q"/><path d="M511.751 822.802l-34.196-.185 2.526 3.574 29.883.062 1.787-3.45z" class="p"/></g><path d="M513.859 820.357l-4.128-5.718h-30.15l-4.143 5.718 4.143 5.693h30.15z" class="P W s"/></g></g></g></g><defs ><path id="B" d="M94.307 85.594c3.28 2.214 4.264 7.852 3.157 12.506-.738-.062-1.005-.287-1.353-.738.123 1.066-.533 1.394-1.804 2.665-1.251-1.271-1.927-1.599-1.804-2.665-.349.451-.615.656-1.353.738-1.107-4.654-.123-10.292 3.157-12.506z"/><path id="C" d="M94.307 86.415c2.563 2.009 3.465 6.868 2.645 10.948-.759-.144-.738-.636-1.23-1.189.021 2.091-.431 1.353-1.415 3.157-.841-1.353-1.415-.8-1.435-3.198-.431.615-.574 1.046-1.21 1.21-.82-4.059.082-8.898 2.645-10.927z"/><path id="D" d="M94.307 87.194c1.927 1.804 2.706 5.904 2.194 9.369-.349-.369 0-1.107-1.128-1.312.021.861-.308 2.235-1.066 2.952-.533-.636-1.251-1.517-.923-2.952-1.046.021-.943.943-1.292 1.312-.513-3.465.267-7.565 2.214-9.369z"/><path id="E" d="M94.307 86.476s.164.902.164 1.374v9.369l-.164 2.296s-.185-1.517-.164-2.296V87.85c.021-.472.164-1.374.164-1.374z"/><path id="F" d="M90.289 73.232c-3.957.144-8.077-3.834-9.902-8.262.636-.39.984-.369 1.517-.205-.718-.8-.369-1.456-.103-3.219 1.763.287 2.501.164 3.014 1.107.021-.574.103-.902.677-1.394 3.649 3.116 6.15 8.262 4.797 11.973z"/><path id="G" d="M89.817 72.576c-3.26-.123-6.827-3.526-8.57-7.298.697-.328.964.082 1.681.226-1.251-1.681-.451-1.353-.718-3.383 1.476.595 1.62-.185 3.034 1.743 0-.738-.144-1.189.267-1.681 3.075 2.809 5.187 7.257 4.305 10.394z"/><path id="H" d="M89.346 71.941c-2.624-.308-5.658-3.178-7.257-6.273.492.082.636.902 1.681.39-.533-.697-1.066-1.989-.861-3.014.8.185 1.907.492 2.481 1.845.841-.636.205-1.312.267-1.804 2.419 2.481 4.203 6.273 3.69 8.857z"/><path id="I" d="M89.776 72.535s-.677-.636-.943-1.005l-5.515-7.585-1.21-1.948 1.476 1.743 5.515 7.585c.246.39.677 1.21.677 1.21z"/><path id="J" d="M98.325 73.232c-1.353-3.711 1.148-8.857 4.797-11.973.554.492.656.82.677 1.394.533-.943 1.251-.82 3.014-1.107.267 1.763.615 2.419-.123 3.219.554-.144.882-.164 1.517.205-1.804 4.428-5.925 8.405-9.882 8.262z"/><path id="K" d="M98.797 72.576c-.902-3.137 1.23-7.585 4.285-10.415.533.574.226.943.308 1.681 1.21-1.702 1.148-.841 3.014-1.722-.123 1.599.677 1.497-.718 3.424.718-.226 1.087-.492 1.681-.267-1.722 3.793-5.289 7.175-8.57 7.298z"/><path id="L" d="M99.268 71.941c-.513-2.604 1.271-6.376 3.731-8.857.062.492-.656.882.144 1.722.492-.718 1.558-1.62 2.604-1.763.062.82.123 1.968-.984 2.932.861.595 1.312-.205 1.804-.308-1.64 3.096-4.674 5.966-7.298 6.273z"/><path id="M" d="M98.838 72.515s.39-.841.677-1.21l5.515-7.585 1.476-1.743-1.21 1.948-5.515 7.585c-.287.369-.943 1.005-.943 1.005z"/><path id="N" d="M87.808 80.879c-1.087 3.793-6.15 6.499-10.927 6.868-.164-.718-.041-1.046.267-1.517-.984.451-1.497-.082-3.096-.882.82-1.599.923-2.317 1.989-2.542-.533-.205-.82-.39-1.107-1.066 4.08-2.501 9.759-3.301 12.875-.861z"/><path id="O" d="M87.029 81.125c-1.128 3.075-5.453 5.412-9.595 5.904-.103-.779.369-.902.738-1.538-1.989.656-1.415.021-3.444-.369 1.025-1.23.328-1.599 2.604-2.358-.718-.226-1.169-.226-1.517-.779 3.629-2.03 8.508-2.686 11.214-.861z"/><path id="P" d="M86.291 81.371c-1.107 2.399-4.777 4.408-8.221 4.982.246-.451 1.046-.328.902-1.476-.82.287-2.214.39-3.137-.103.431-.697 1.066-1.661 2.522-1.784-.349-1.005-1.189-.595-1.64-.82 3.116-1.558 7.257-2.091 9.574-.8z"/><path id="Q" d="M86.968 81.146s-.82.451-1.251.595l-8.918 2.891-2.235.554 2.132-.861 8.918-2.891c.451-.144 1.353-.287 1.353-.287z"/><path id="R" d="M100.806 80.879c3.116-2.44 8.775-1.64 12.875.861-.287.677-.574.861-1.107 1.066 1.046.205 1.169.943 1.989 2.542-1.599.8-2.112 1.333-3.096.882.308.472.431.779.267 1.517-4.777-.39-9.841-3.075-10.927-6.868z"/><path id="S" d="M101.585 81.125c2.706-1.825 7.606-1.169 11.235.861-.369.677-.82.513-1.497.8 1.989.636 1.148.82 2.563 2.317-1.558.39-1.21 1.107-3.485.39.451.595.8.882.779 1.517-4.141-.472-8.467-2.809-9.595-5.884z"/><path id="T" d="M102.323 81.371c2.317-1.292 6.458-.759 9.574.8-.451.226-1.046-.349-1.599.656.841.246 2.03.984 2.481 1.927-.759.308-1.845.718-3.096-.041-.308 1.005.615 1.189.841 1.62-3.424-.554-7.093-2.563-8.2-4.961z"/><path id="U" d="M101.646 81.146s.923.123 1.353.267l8.918 2.891 2.132.861s-1.497-.287-2.235-.554l-8.918-2.891c-.431-.164-1.251-.574-1.251-.574z"/><path id="V" d="M110.605 82.622c2.788-1.948 1.21-6.273.185-9.513s-2.214-7.688-5.597-7.585c-3.444.103-1.886 5.187-5.105 4.92-1.251-3.075 3.957-3.116 2.973-6.519-.964-3.321-5.433-3.116-8.754-3.116s-7.79-.205-8.754 3.116c-.984 3.403 4.223 3.444 2.973 6.519-3.219.267-1.661-4.818-5.105-4.92-3.362-.103-4.572 4.346-5.597 7.585s-2.583 7.544.185 9.513c2.85 2.009 4.49-3.055 6.95-.902-.738 3.239-4.982.144-6.13 3.485-1.128 3.26 2.624 5.802 5.289 7.811 2.686 2.009 6.191 4.879 8.857 2.768 2.727-2.173-1.435-5.351 1.312-7.073 2.768 1.722-1.415 4.9 1.312 7.073 2.665 2.112 6.171-.759 8.857-2.768s6.417-4.551 5.289-7.811c-1.148-3.342-5.392-.246-6.13-3.485 2.481-2.153 4.141 2.911 6.991.902z"/><path id="W" d="M94.307 61.67c-1.681 0-3.567-.041-5.084.287s-2.501.902-2.87 2.214c-.185.656-.103.943.123 1.312s.656.738 1.169 1.148 1.107.841 1.517 1.517.533 1.661.144 2.624c-.123.287-.39.492-.697.533-1.005.082-1.886-.328-2.378-.943-.513-.615-.718-1.312-.943-1.948-.226-.615-.431-1.169-.697-1.497s-.513-.513-1.169-.533c-1.312-.041-2.153.738-2.932 2.112s-1.333 3.239-1.845 4.879-1.148 3.485-1.292 5.064c-.164 1.579.062 2.706 1.169 3.485.554.39.861.39 1.251.287.41-.103.882-.41 1.415-.779s1.128-.8 1.886-1.005c.759-.185 1.702 0 2.46.677a.84.84 0 0 1 .267.861c-.226 1.025-.902 1.722-1.62 2.03s-1.435.308-2.091.328c-.636.021-1.21.062-1.599.226s-.636.349-.861.984c-.451 1.271.021 2.337 1.046 3.526s2.604 2.296 3.957 3.301 2.87 2.194 4.285 2.829 2.522.779 3.567-.062c.533-.41.615-.718.656-1.148.021-.431-.123-1.005-.287-1.64-.185-.636-.41-1.333-.349-2.132s.513-1.661 1.394-2.194a.85.85 0 0 1 .882 0c.861.533 1.333 1.394 1.394 2.194s-.185 1.497-.349 2.132c-.185.636-.308 1.21-.287 1.64s.123.738.656 1.148c1.046.82 2.173.697 3.567.062 1.415-.636 2.932-1.825 4.285-2.829s2.911-2.132 3.957-3.301c1.025-1.169 1.497-2.235 1.066-3.526-.226-.636-.472-.82-.861-.984s-.964-.185-1.599-.226c-.656-.021-1.374-.021-2.091-.328s-1.374-1.025-1.62-2.03c-.082-.308.021-.656.267-.861.779-.677 1.702-.861 2.46-.677s1.353.636 1.886 1.005 1.025.677 1.415.779c.41.103.718.103 1.251-.287 1.087-.759 1.312-1.907 1.169-3.485-.164-1.579-.779-3.424-1.292-5.064s-1.066-3.506-1.845-4.879-1.599-2.153-2.932-2.112c-.656.021-.902.205-1.169.533s-.472.882-.697 1.497-.431 1.333-.943 1.948c-.492.615-1.374 1.025-2.378.943-.308-.021-.595-.226-.697-.533-.39-.964-.287-1.948.144-2.624.41-.677 1.005-1.107 1.497-1.517.513-.41.943-.8 1.169-1.148.226-.369.308-.656.123-1.312-.369-1.312-1.353-1.886-2.85-2.214-1.579-.328-3.485-.287-5.166-.287z"/><path id="X" d="M92.072 88.096c-1.066 2.03.246 6.027.246 6.027-2.358 0-2.46-1.087-2.993-2.788-.287-.902-.287-2.214-1.722-3.157-1.333-1.107-2.522-.697-3.465-.697-1.763 0-2.788.246-3.526-2.071 0 0 4.121.021 5.658-1.62 1.271-1.374 1.333-2.891 1.333-2.891s-.984-1.189-2.788-1.517c-2.194-.431-5.494 2.071-5.494 2.071-.718-2.317.246-2.747 1.661-3.793.759-.554 1.948-.964 2.399-2.645.615-1.64-.144-2.686-.431-3.588-.554-1.722-1.087-2.645.82-4.08 0 0 1.251 4.018 3.26 5.023 1.661.82 3.096.41 3.096.41s.8-1.312.554-3.198c-.308-2.276-3.649-4.736-3.649-4.736 1.907-1.415 2.604-.615 4.018.451.738.554 1.497 1.62 3.198 1.517 1.702.082 2.44-.964 3.198-1.517 1.415-1.066 2.112-1.886 4.039-.451 0 0-3.342 2.46-3.649 4.736-.246 1.886.595 3.137.595 3.137s1.476.369 3.137-.451c2.009-1.005 3.26-5.023 3.26-5.023 1.907 1.435 1.374 2.358.82 4.08-.287.902-1.025 1.948-.431 3.588.451 1.681 1.64 2.091 2.399 2.645 1.415 1.066 2.399 1.497 1.661 3.793 0 0-3.301-2.501-5.515-2.091-1.804.328-2.727 1.538-2.727 1.538s.103 1.558 1.394 2.911c1.558 1.661 5.658 1.64 5.658 1.64-.738 2.317-1.763 2.071-3.506 2.071-.923 0-2.132-.41-3.465.697-1.435.964-1.435 2.255-1.722 3.157-.533 1.722-.636 2.788-2.993 2.788 0 0 1.292-4.018.246-6.027-.861-1.661-2.276-2.194-2.276-2.194s-1.415.595-2.296 2.255z"/><path id="Y" d="M88.792 64.806a1.51 1.51 0 0 0-.513.123l.984.902c.923.943 1.948 2.173 2.153 3.649.287 2.132-.656 3.69-.656 3.69a.67.67 0 0 1-.41.308s-1.722.492-3.608-.451c-1.292-.636-2.112-2.03-2.706-3.219-.226-.451-.369-.841-.513-1.21-.205.267-.328.492-.328.697-.021.369.185.984.472 1.866.226.697 1.107 2.132.431 4.018 0 .021 0 .021-.021.041v.041c-.533 1.927-2.071 2.542-2.645 2.993-.738.554-1.251.902-1.456 1.23-.123.185-.164.431-.144.779l1.107-.656c1.169-.615 2.624-1.23 4.039-.964 2.05.39 3.198 1.784 3.198 1.784.103.144.164.308.164.492 0 0-.062 1.825-1.517 3.383-1.005 1.066-2.542 1.435-3.813 1.661-.492.082-.882.103-1.271.144.185.287.349.472.554.533.349.144.964.123 1.886.123.718 0 2.296-.41 3.834.82.021.021.041.021.062.041 1.62 1.128 1.722 2.809 1.948 3.506.287.882.451 1.517.677 1.804.144.164.349.287.677.369l-.267-1.292c-.205-1.312-.328-2.932.349-4.244.984-1.886 2.624-2.583 2.624-2.583a.64.64 0 0 1 .513-.021s1.661.636 2.645 2.542c.677 1.312.554 2.911.349 4.244l-.267 1.292c.308-.082.533-.205.677-.369.226-.287.41-.902.677-1.804.226-.697.328-2.378 1.948-3.506 0 0 .021 0 .021-.021.021 0 .021-.021.041-.041 1.538-1.23 3.137-.82 3.834-.82.902 0 1.538.021 1.886-.123.205-.082.369-.246.554-.533-.39-.021-.779-.062-1.271-.144-1.292-.205-2.829-.595-3.813-1.661-1.456-1.558-1.579-3.383-1.579-3.383-.021-.185.041-.369.144-.513 0 0 1.107-1.435 3.157-1.825 1.415-.267 2.87.369 4.039.964.451.226.779.451 1.107.656.021-.349-.021-.595-.144-.779-.205-.328-.718-.677-1.456-1.23-.574-.431-2.091-1.066-2.645-2.993 0-.021-.021-.041-.021-.062-.656-1.886.205-3.321.431-4.018.287-.882.492-1.497.472-1.866-.021-.226-.123-.451-.328-.697l-.513 1.21c-.595 1.189-1.415 2.563-2.706 3.219-1.886.943-3.608.513-3.608.513a.71.71 0 0 1-.431-.308s-.984-1.517-.697-3.67c.185-1.456 1.23-2.686 2.153-3.649.349-.369.677-.636.964-.882-.308-.123-.554-.164-.759-.103-.349.103-.861.492-1.579 1.025-.574.431-1.64 1.722-3.588 1.661h-.082c-1.948.062-2.993-1.23-3.588-1.661l-1.128-.82c-.267-.144-.472-.205-.697-.205z"/><path id="Z" d="M102.999 76.553c1.476 1.046.636 3.342.103 5.084-.554 1.722-1.189 4.1-2.973 4.039-1.845-.062-1.005-2.768-2.727-2.624-.656 1.64 2.112 1.661 1.579 3.485-.513 1.763-2.891 1.661-4.674 1.661-1.763 0-4.162.103-4.674-1.661-.513-1.804 2.255-1.845 1.579-3.485-1.722-.144-.882 2.563-2.727 2.624-1.804.041-2.44-2.317-2.973-4.039-.554-1.722-1.394-4.039.103-5.084 1.517-1.066 2.399 1.64 3.711.472-.39-1.722-2.645-.082-3.28-1.845-.595-1.743 1.394-3.096 2.829-4.162s3.301-2.604 4.736-1.476c1.456 1.148-.759 2.85.697 3.772 1.476-.923-.759-2.624.697-3.772 1.415-1.128 3.301.41 4.736 1.476s3.424 2.419 2.829 4.162c-.615 1.784-2.87.123-3.28 1.845 1.312 1.148 2.194-1.558 3.711-.472z"/><path id="a" d="M94.307 87.727c-.902 0-1.907.021-2.706-.164s-1.333-.492-1.538-1.189c-.103-.349-.041-.513.062-.697.123-.185.349-.39.636-.615.267-.226.595-.451.8-.82.226-.369.287-.882.082-1.394-.062-.164-.205-.267-.369-.287-.533-.041-1.005.185-1.271.513s-.39.697-.513 1.025-.226.615-.369.8-.267.267-.636.287c-.697.021-1.148-.39-1.558-1.128s-.697-1.722-.984-2.604c-.267-.882-.615-1.866-.697-2.706s.041-1.456.615-1.845c.287-.205.451-.205.677-.144.205.062.472.226.759.431s.595.431 1.005.533.902 0 1.312-.369a.46.46 0 0 0 .144-.451c-.123-.533-.472-.923-.861-1.087s-.759-.164-1.107-.164c-.349-.021-.656-.041-.861-.123s-.349-.185-.451-.533c-.246-.677.021-1.251.554-1.866.554-.636 1.394-1.23 2.112-1.763s1.538-1.169 2.276-1.517c.759-.349 1.353-.41 1.907.021.287.226.328.39.349.615s-.062.533-.164.882-.205.718-.185 1.148.287.882.738 1.169c.144.082.328.082.472 0 .472-.287.718-.738.738-1.169s-.103-.8-.185-1.148c-.103-.349-.164-.656-.164-.882.021-.226.062-.39.349-.615.554-.451 1.148-.369 1.907-.021s1.558.984 2.276 1.517 1.558 1.128 2.112 1.763.8 1.189.574 1.866c-.123.349-.246.431-.451.533-.205.082-.513.103-.861.123s-.738.021-1.107.164c-.39.164-.738.533-.861 1.087a.46.46 0 0 0 .144.451 1.5 1.5 0 0 0 1.312.369c.41-.103.718-.328 1.005-.533s.554-.369.759-.431.39-.062.677.144c.574.41.697 1.005.615 1.845s-.41 1.825-.697 2.706c-.267.861-.574 1.866-.984 2.604s-.861 1.148-1.558 1.128c-.349-.021-.492-.103-.636-.287s-.246-.472-.369-.8-.226-.697-.492-1.025-.738-.554-1.271-.513c-.164.021-.308.123-.369.287-.205.513-.144 1.025.082 1.394s.533.595.8.82.513.431.636.615.164.349.062.697c-.205.697-.718 1.005-1.517 1.189-.841.185-1.845.164-2.747.164z"/><path id="b" d="M93.118 73.622c-.574-1.087.123-3.219.123-3.219-1.251 0-1.312.574-1.599 1.497-.144.492-.144 1.169-.923 1.681-.697.595-1.353.369-1.845.369-.943 0-1.476-.123-1.866 1.107 0 0 2.194-.021 3.014.861.677.738.718 1.538.718 1.538s-.513.636-1.497.82c-1.169.226-2.932-1.107-2.932-1.107-.39 1.23.123 1.456.882 2.03.41.308 1.046.513 1.271 1.415.328.882-.082 1.435-.226 1.907-.287.923-.574 1.415.431 2.173 0 0 .656-2.153 1.743-2.686.882-.431 1.64-.205 1.64-.205s.431.697.287 1.702c-.164 1.21-1.948 2.522-1.948 2.522 1.025.759 1.394.328 2.153-.246.39-.308.8-.861 1.702-.82.902-.041 1.312.513 1.702.82.759.574 1.128 1.005 2.153.246 0 0-1.784-1.312-1.948-2.522-.123-1.005.308-1.681.308-1.681s.779-.205 1.661.246c1.066.533 1.743 2.686 1.743 2.686 1.025-.759.738-1.251.431-2.173-.164-.492-.554-1.046-.226-1.907.246-.902.882-1.107 1.271-1.415.759-.574 1.271-.8.882-2.03 0 0-1.763 1.333-2.932 1.128-.964-.185-1.456-.82-1.456-.82s.062-.82.738-1.558c.82-.882 3.014-.861 3.014-.861-.39-1.23-.943-1.107-1.866-1.107-.492 0-1.128.205-1.845-.369-.759-.513-.759-1.21-.923-1.681-.287-.923-.349-1.497-1.599-1.497 0 0 .697 2.132.123 3.219-.472.882-1.21 1.169-1.21 1.169s-.677-.349-1.148-1.23z"/><path id="c" d="M91.355 86.045c-.062 0-.164-.021-.267-.062l.513-.492c.492-.513 1.046-1.169 1.148-1.948.144-1.128-.349-1.968-.349-1.968-.041-.082-.123-.144-.226-.164 0 0-.923-.267-1.927.246-.697.349-1.128 1.087-1.435 1.722-.123.246-.205.451-.267.636-.103-.144-.164-.267-.185-.369-.021-.205.103-.533.246-1.005.123-.369.595-1.128.226-2.153v-.021-.021c-.287-1.025-1.107-1.353-1.415-1.599-.39-.287-.677-.492-.779-.656-.062-.103-.082-.226-.082-.41l.595.349c.615.328 1.394.656 2.153.513 1.107-.205 1.702-.943 1.702-.943.062-.082.082-.164.082-.267 0 0-.041-.984-.82-1.804-.533-.574-1.353-.779-2.03-.882l-.677-.082c.103-.144.185-.246.287-.287.185-.082.513-.062 1.005-.062.39 0 1.23.226 2.05-.431.021 0 .021-.021.041-.021.861-.595.923-1.497 1.046-1.866.144-.472.246-.8.369-.964.062-.082.185-.144.349-.205l-.144.697c-.103.697-.164 1.558.185 2.255.533 1.005 1.394 1.374 1.394 1.374.082.041.185.041.267 0 0 0 .882-.349 1.415-1.353.369-.697.287-1.558.185-2.255-.041-.267-.082-.492-.144-.697.164.041.287.103.349.205.123.164.226.492.369.964.123.369.185 1.271 1.046 1.866h.021l.021.021c.82.656 1.661.431 2.05.431.492 0 .82 0 1.005.062.103.041.205.144.287.287l-.677.082c-.677.103-1.497.308-2.03.882-.779.82-.841 1.804-.841 1.804 0 .103.021.185.082.267 0 0 .595.759 1.681.964.759.144 1.538-.185 2.153-.513.246-.123.41-.246.595-.349.021.185-.021.308-.082.41-.103.164-.39.369-.779.656-.308.226-1.128.574-1.415 1.599 0 .021 0 .021-.021.041-.349 1.005.103 1.763.226 2.153.144.472.267.8.246 1.005 0 .123-.062.226-.185.369l-.267-.636c-.308-.636-.759-1.374-1.435-1.722-1.005-.492-1.927-.267-1.927-.267a.43.43 0 0 0-.226.164s-.533.82-.369 1.948c.103.779.656 1.435 1.148 1.948l.513.472c-.164.062-.287.082-.41.062-.185-.041-.451-.267-.841-.554-.308-.226-.861-.923-1.907-.882h-.041c-1.046-.041-1.599.656-1.907.882l-.595.451c-.123.082-.226.123-.349.123z"/><path id="d" d="M94.307 82.56c-.759.39-1.189.123-1.517-.308-.513-.021-1.025.062-1.251-.841-.718-.185-1.025-.595-.841-1.251-.533-.349-.697-.841-.308-1.538-.39-.861.021-1.23.308-1.517-.103-.574.062-1.025.841-1.251.185-.779.697-.841 1.251-.841.349-.41.82-.615 1.517-.308.656-.308 1.148-.144 1.517.308.718-.144 1.046.267 1.251.841.738.287.882.738.841 1.251.513.492.615 1.005.308 1.538.308.615.369 1.148-.308 1.538.021.738-.308 1.128-.841 1.251-.205.451-.287.964-1.251.841-.349.308-.656.656-1.517.287z"/><path id="e" d="M93.733 81.658c-.636.185-.923-.082-1.107-.472-.39-.103-.8-.103-.82-.82-.533-.246-.697-.615-.451-1.087-.349-.349-.41-.738 0-1.21-.164-.738.205-.964.472-1.128.021-.451.205-.779.841-.82.267-.574.656-.533 1.087-.451.328-.267.718-.349 1.21 0 .533-.123.902.062 1.107.472.554 0 .759.369.82.841.533.328.554.697.451 1.087.328.451.328.861 0 1.21.144.513.103.943-.472 1.128-.103.574-.41.82-.841.82-.226.308-.369.677-1.087.451-.328.164-.595.369-1.21-.021z"/><path id="f" d="M93.876 80.879c-.472.144-.677-.062-.82-.349-.287-.082-.595-.082-.615-.615-.39-.185-.513-.451-.328-.8-.267-.246-.308-.554 0-.902-.123-.554.144-.718.349-.841.021-.328.164-.574.615-.615.205-.431.492-.39.8-.328.246-.185.533-.246.902 0 .41-.103.656.041.82.349.41 0 .554.267.615.615.39.246.41.513.328.8.246.328.246.636 0 .902.103.369.082.697-.349.841-.082.431-.287.615-.615.615-.164.226-.267.513-.8.328-.246.144-.451.287-.902 0z"/><path id="g" d="M-83.521 298.162s.922.194 1.125.608.152 1.151.152 1.151c-1.061.18-1.175 1.153-1.017 1.998 0 0-.714-.462-.883-.961-.355-1.048.624-2.795.624-2.795z"/><path id="h" d="M-529.035 446.534s.807.17.984.532.133 1.007.133 1.007c-.928.158-1.029 1.009-.89 1.748 0 0-.625-.404-.773-.841-.31-.917.546-2.446.546-2.446z"/><path id="i" d="M-473.461 444.226s.724.627.711 1.061-.399.997-.399.997c-1.019-.399-1.571.32-1.823 1.075 0 0-.416-.734-.334-1.22.172-1.018 1.845-1.913 1.845-1.913z"/></defs></svg>